<?xml version="1.0" standalone="no"?>
<!DOCTYPE svg PUBLIC "-//W3C//DTD SVG 20010904//EN"
 "http://www.w3.org/TR/2001/REC-SVG-20010904/DTD/svg10.dtd">
<svg version="1.0" xmlns="http://www.w3.org/2000/svg"
 width="1024.000000pt" height="1024.000000pt" viewBox="0 0 1024.000000 1024.000000"
 preserveAspectRatio="xMidYMid meet">

<g transform="translate(0.000000,1024.000000) scale(0.100000,-0.100000)"
fill="#000000" stroke="none">
<path d="M4730 9699 c-36 -4 -108 -13 -160 -19 -125 -15 -210 -27 -290 -40
-36 -6 -83 -13 -105 -16 -22 -3 -49 -9 -60 -13 -21 -9 -66 -20 -180 -47 -38
-9 -79 -20 -90 -24 -11 -4 -40 -13 -65 -20 -25 -7 -55 -16 -68 -21 -13 -5 -30
-9 -38 -9 -9 0 -30 -6 -47 -14 -70 -30 -89 -36 -107 -36 -11 0 -20 -4 -20 -10
0 -5 -8 -10 -18 -10 -10 0 -37 -9 -60 -20 -23 -11 -56 -23 -72 -27 -17 -3 -30
-9 -30 -14 0 -5 -6 -9 -14 -9 -8 0 -31 -9 -53 -19 -144 -71 -188 -91 -205 -91
-10 0 -18 -3 -18 -7 0 -5 -10 -13 -23 -19 -58 -28 -132 -70 -135 -76 -2 -5
-12 -8 -23 -8 -10 0 -19 -4 -19 -10 0 -5 -4 -10 -9 -10 -13 0 -135 -73 -139
-82 -2 -5 -8 -8 -13 -8 -12 0 -93 -52 -97 -62 -2 -5 -8 -8 -13 -8 -12 0 -120
-72 -142 -95 -9 -8 -20 -15 -25 -15 -5 0 -17 -9 -27 -20 -10 -11 -22 -20 -27
-20 -4 0 -16 -8 -26 -17 -28 -27 -62 -53 -67 -53 -3 0 -22 -16 -42 -35 -20
-19 -41 -35 -46 -35 -5 0 -21 -13 -35 -28 -15 -15 -45 -41 -67 -57 -48 -36
-429 -415 -466 -465 -15 -19 -35 -44 -46 -55 -10 -11 -36 -42 -58 -70 -22 -27
-43 -52 -46 -55 -3 -3 -27 -36 -54 -75 -27 -38 -53 -71 -57 -73 -5 -2 -8 -10
-8 -17 0 -7 -3 -15 -8 -17 -12 -5 -82 -105 -82 -117 0 -6 -4 -11 -9 -11 -5 0
-21 -25 -37 -55 -16 -30 -32 -55 -36 -55 -5 0 -8 -7 -8 -15 0 -8 -4 -15 -10
-15 -5 0 -10 -4 -10 -10 0 -5 -16 -34 -35 -64 -19 -30 -35 -60 -35 -66 0 -5
-4 -10 -10 -10 -5 0 -10 -9 -10 -20 0 -11 -4 -20 -10 -20 -17 0 -11 -40 8 -46
9 -3 25 -10 34 -15 10 -5 29 -9 43 -9 14 0 33 -4 43 -8 9 -5 42 -21 72 -35 63
-31 80 -33 80 -12 0 8 5 15 10 15 6 0 10 4 10 10 0 5 16 34 35 64 19 30 35 60
35 66 0 5 5 10 10 10 6 0 10 4 10 10 0 13 71 124 82 128 4 2 8 10 8 18 0 8 5
14 10 14 6 0 10 5 10 11 0 6 6 17 13 24 6 8 23 30 37 50 51 74 191 253 227
291 7 7 13 14 13 17 0 2 32 37 71 78 38 41 84 89 101 107 17 17 35 32 39 32 5
0 9 4 9 10 0 9 86 100 95 100 3 0 31 26 63 58 32 31 71 66 86 77 16 11 44 35
62 53 18 17 36 32 39 32 5 0 44 32 71 58 7 6 16 12 21 12 5 0 15 9 23 20 8 11
18 20 23 20 10 0 81 52 85 63 2 4 10 7 18 7 8 0 14 4 14 8 0 4 15 16 33 26 17
11 48 32 68 48 20 15 43 28 51 28 8 0 23 9 33 20 10 11 22 20 26 20 8 0 73 41
96 60 7 5 17 10 23 10 6 0 29 12 53 27 67 42 276 143 432 208 22 9 57 25 78
36 22 10 50 19 63 19 13 0 24 5 24 10 0 6 8 10 18 10 9 0 42 10 72 21 30 12
67 24 83 26 15 3 30 9 33 14 3 5 16 9 29 9 13 0 27 5 30 10 3 6 18 10 33 10
15 0 47 7 71 16 55 19 164 44 216 50 22 3 49 9 60 14 11 5 40 11 65 15 25 4
70 11 100 16 250 41 426 52 764 46 326 -6 485 -21 711 -66 28 -6 75 -15 105
-20 30 -5 98 -22 150 -36 52 -15 116 -29 143 -32 26 -3 47 -8 47 -13 0 -4 12
-10 28 -13 31 -5 198 -63 224 -77 10 -6 27 -10 37 -10 11 0 23 -4 26 -10 3 -5
15 -10 26 -10 10 0 19 -4 19 -10 0 -5 7 -10 16 -10 17 0 66 -20 125 -51 20
-10 46 -19 57 -19 11 0 22 -4 24 -8 2 -5 50 -32 108 -60 143 -70 234 -121 319
-176 40 -25 78 -46 85 -46 8 0 16 -4 18 -8 4 -10 133 -102 142 -102 4 0 18
-10 31 -22 38 -36 54 -48 62 -48 5 0 15 -9 23 -20 8 -11 19 -20 25 -20 6 0 28
-16 48 -35 20 -19 41 -35 47 -35 5 0 24 -15 42 -32 19 -18 60 -55 93 -83 33
-27 98 -87 145 -132 47 -46 88 -83 92 -83 5 0 8 -4 8 -9 0 -4 34 -44 76 -87
41 -44 87 -95 102 -114 15 -19 46 -55 69 -80 24 -25 43 -49 43 -54 0 -5 8 -16
18 -25 9 -9 31 -34 47 -56 16 -22 35 -46 41 -53 7 -6 16 -21 19 -32 3 -11 11
-20 16 -20 5 0 9 -5 9 -10 0 -6 5 -16 10 -23 46 -55 60 -73 60 -83 0 -5 8 -19
18 -30 22 -24 109 -168 117 -194 4 -11 10 -20 14 -20 5 0 15 -15 22 -32 7 -18
19 -39 25 -45 14 -14 40 -17 46 -5 5 11 104 62 122 62 9 0 16 5 16 10 0 6 16
10 35 10 19 0 35 4 35 9 0 5 9 11 20 14 19 5 19 7 -7 54 -15 26 -31 50 -35 51
-4 2 -8 12 -8 23 0 10 -4 19 -10 19 -5 0 -10 7 -10 15 0 8 -4 15 -10 15 -5 0
-10 4 -10 9 0 13 -73 135 -82 139 -5 2 -8 10 -8 17 0 7 -3 15 -7 17 -10 4 -63
85 -63 96 0 4 -9 14 -20 22 -11 8 -20 19 -20 25 0 6 -11 22 -25 37 -14 15 -25
31 -25 37 0 5 -4 11 -8 13 -5 2 -23 24 -41 51 -17 26 -43 58 -57 72 -13 13
-24 27 -24 30 0 3 -10 16 -22 29 -13 12 -36 39 -53 61 -16 21 -49 58 -72 83
-24 24 -43 48 -43 53 0 5 -7 9 -15 9 -8 0 -15 4 -15 8 0 17 -267 278 -365 357
-21 17 -48 40 -61 53 -13 12 -25 22 -28 22 -3 0 -20 16 -39 35 -19 19 -39 35
-45 35 -7 0 -29 16 -49 35 -20 19 -42 35 -48 35 -6 0 -17 9 -25 20 -8 11 -22
20 -32 20 -10 0 -18 4 -18 10 0 5 -19 22 -42 37 -24 16 -44 31 -46 36 -2 4
-10 7 -18 7 -8 0 -14 5 -14 10 0 6 -9 10 -20 10 -11 0 -20 4 -20 8 0 5 -16 17
-35 28 -19 10 -35 22 -35 26 0 5 -9 8 -20 8 -11 0 -20 4 -20 8 0 5 -31 26 -70
47 -38 21 -70 42 -70 47 0 4 -9 8 -20 8 -11 0 -20 5 -20 10 0 6 -7 10 -16 10
-8 0 -32 11 -52 25 -20 14 -42 25 -49 25 -7 0 -13 3 -13 8 0 10 -50 32 -72 32
-10 0 -18 5 -18 10 0 6 -4 10 -9 10 -6 0 -45 16 -88 36 -140 65 -177 82 -215
94 -21 6 -40 16 -43 21 -4 5 -19 9 -36 9 -16 0 -29 4 -29 9 0 5 -12 11 -27 14
-16 3 -68 19 -118 35 -49 17 -110 35 -135 42 -25 7 -56 16 -70 20 -14 4 -45
13 -70 20 -25 6 -61 16 -80 22 -42 14 -97 26 -167 39 -29 5 -79 14 -110 19
-64 12 -139 22 -288 39 -55 7 -130 16 -167 21 -79 12 -644 11 -738 -1z"/>
<path d="M4845 8495 c-27 -7 -76 -18 -108 -25 -32 -8 -60 -17 -63 -22 -3 -4
-18 -8 -35 -8 -16 0 -29 -4 -29 -10 0 -5 -11 -10 -25 -10 -14 0 -25 -4 -25
-10 0 -5 -8 -10 -18 -10 -9 0 -34 -11 -54 -25 -20 -14 -42 -25 -47 -25 -6 0
-11 -4 -11 -10 0 -5 -9 -10 -20 -10 -11 0 -20 -4 -20 -10 0 -5 -5 -10 -11 -10
-6 0 -17 -6 -24 -12 -24 -22 -38 -33 -85 -65 -49 -34 -138 -120 -183 -174 -15
-19 -35 -44 -45 -56 -9 -12 -24 -30 -33 -41 -16 -19 -75 -124 -119 -211 -28
-58 -60 -148 -60 -173 0 -15 -4 -28 -9 -28 -10 0 -17 -38 -30 -165 -5 -44 -12
-95 -16 -114 -12 -54 22 -339 46 -383 5 -10 9 -30 9 -46 0 -15 4 -32 9 -38 5
-5 16 -33 26 -61 9 -29 21 -53 26 -53 5 0 9 -11 9 -25 0 -14 4 -25 8 -25 5 0
14 -16 22 -35 8 -19 16 -35 19 -35 4 0 12 -14 20 -31 32 -73 217 -282 304
-344 16 -11 38 -28 49 -37 12 -10 25 -18 29 -18 4 0 14 -6 21 -13 18 -17 171
-98 223 -117 45 -17 163 -53 205 -63 58 -13 479 -13 545 0 122 25 278 88 402
164 36 21 69 39 74 39 5 0 9 3 9 8 0 4 17 18 37 32 40 27 166 148 198 191 80
106 104 139 124 174 44 74 57 100 71 135 7 19 18 49 25 65 7 17 18 50 25 75 7
25 16 54 21 65 4 11 10 36 13 55 3 19 10 62 16 95 15 75 8 381 -9 398 -6 6
-11 24 -11 41 0 30 -15 86 -31 118 -5 10 -9 24 -9 32 0 31 -88 226 -102 226
-4 0 -8 5 -8 12 0 13 -51 91 -62 96 -5 2 -8 8 -8 13 0 6 -10 21 -22 34 -13 13
-36 40 -53 61 -16 20 -43 49 -58 63 -16 14 -41 38 -57 54 -15 15 -31 27 -36
27 -5 0 -16 9 -24 20 -8 11 -20 20 -27 20 -7 0 -13 3 -13 8 0 4 -16 16 -35 26
-19 11 -35 23 -35 28 0 4 -9 8 -20 8 -11 0 -20 4 -20 9 0 5 -20 17 -45 27 -25
9 -45 21 -45 25 0 5 -7 9 -15 9 -8 0 -24 5 -35 10 -11 6 -29 15 -40 20 -11 6
-28 10 -38 10 -10 0 -22 4 -28 9 -5 5 -54 20 -109 33 -84 19 -130 23 -285 24
-122 1 -202 -2 -235 -11z m440 -320 c39 -9 82 -19 98 -22 15 -3 27 -9 27 -14
0 -5 8 -9 18 -9 11 0 39 -11 63 -25 24 -14 55 -30 69 -37 88 -43 224 -165 303
-272 20 -28 40 -55 45 -61 13 -18 80 -159 90 -190 5 -16 14 -48 20 -70 6 -22
15 -59 21 -81 14 -53 14 -305 0 -358 -6 -22 -15 -59 -21 -81 -26 -99 -65 -186
-124 -274 -16 -24 -33 -51 -39 -59 -15 -23 -175 -182 -183 -182 -4 0 -22 -13
-40 -28 -29 -25 -143 -87 -209 -113 -13 -5 -33 -13 -45 -18 -103 -44 -374 -54
-518 -20 -47 11 -97 23 -112 26 -16 3 -28 9 -28 14 0 5 -9 9 -19 9 -11 0 -23
5 -26 10 -3 6 -15 10 -26 10 -10 0 -19 3 -19 8 0 4 -24 19 -53 35 -56 29 -179
125 -211 166 -11 13 -29 33 -40 45 -28 28 -116 161 -116 175 0 6 -4 11 -10 11
-5 0 -10 11 -10 24 0 13 -3 26 -7 28 -11 4 -43 75 -43 93 0 8 -4 15 -9 15 -9
0 -12 19 -31 195 -10 96 -8 124 17 338 3 26 9 47 14 47 5 0 9 7 9 15 0 19 64
155 99 210 73 116 182 225 311 311 57 39 171 94 218 106 68 17 127 30 172 39
68 12 266 3 345 -16z"/>
<path d="M9349 6985 c-78 -13 -146 -33 -163 -47 -6 -4 -18 -8 -28 -8 -10 0
-18 -4 -18 -10 0 -5 -5 -10 -12 -10 -6 0 -26 -11 -44 -25 -18 -14 -36 -25 -39
-25 -11 0 -125 -116 -125 -127 0 -5 -8 -17 -18 -26 -16 -14 -64 -104 -82 -152
-22 -60 -34 -142 -33 -240 0 -99 7 -140 34 -213 11 -27 -8 -62 -33 -62 -9 0
-20 -4 -23 -10 -3 -5 -15 -10 -26 -10 -10 0 -19 -4 -19 -10 0 -5 -6 -10 -14
-10 -8 0 -29 -8 -48 -17 -60 -30 -68 -33 -83 -33 -8 0 -15 -4 -15 -10 0 -5 -9
-10 -19 -10 -11 0 -36 -9 -58 -20 -61 -32 -154 -70 -169 -70 -8 0 -14 -4 -14
-10 0 -5 -9 -10 -20 -10 -11 0 -28 -4 -38 -10 -32 -18 -134 -60 -147 -60 -7 0
-30 -8 -52 -19 -41 -20 -153 -60 -190 -68 -13 -3 -23 -9 -23 -14 0 -5 -11 -9
-25 -9 -14 0 -33 -4 -43 -10 -26 -14 -253 -91 -287 -97 -16 -3 -34 -9 -40 -12
-5 -4 -30 -13 -55 -20 -25 -7 -63 -19 -85 -26 -22 -7 -60 -18 -85 -25 -25 -7
-55 -16 -68 -21 -13 -5 -32 -9 -43 -9 -10 0 -27 -4 -37 -9 -9 -5 -64 -21 -122
-36 -58 -14 -119 -30 -136 -35 -17 -6 -42 -10 -57 -10 -14 0 -29 -4 -32 -10
-3 -5 -21 -10 -40 -10 -19 0 -37 -4 -40 -10 -3 -5 -19 -10 -35 -10 -16 0 -40
-4 -55 -10 -14 -5 -52 -15 -83 -21 -120 -22 -169 -30 -212 -35 -25 -3 -49 -10
-54 -15 -6 -5 -32 -9 -58 -9 -27 0 -56 -4 -66 -9 -9 -5 -64 -14 -122 -21 -58
-6 -136 -16 -175 -21 -194 -25 -369 -33 -755 -32 -392 0 -548 7 -735 32 -338
45 -472 67 -695 115 -41 9 -92 19 -113 23 -21 3 -40 10 -43 14 -3 5 -23 9 -44
9 -21 0 -42 5 -45 10 -3 6 -21 10 -40 10 -19 0 -36 4 -39 9 -3 4 -22 11 -43
14 -21 4 -63 14 -93 23 -111 32 -126 36 -158 41 -18 3 -35 9 -38 14 -3 5 -13
9 -22 9 -20 0 -179 47 -204 61 -10 5 -27 9 -37 9 -11 0 -23 5 -26 10 -3 6 -19
10 -34 10 -15 0 -31 4 -37 9 -5 5 -25 14 -44 19 -19 6 -66 22 -105 36 -38 14
-78 26 -87 26 -10 0 -18 4 -18 9 0 5 -12 11 -27 14 -26 4 -115 38 -155 58 -10
5 -27 9 -37 9 -11 0 -23 5 -26 10 -3 6 -15 10 -26 10 -10 0 -19 5 -19 10 0 6
-8 10 -18 10 -16 0 -97 34 -144 60 -10 6 -27 10 -38 10 -11 0 -20 3 -20 8 0 4
-19 13 -41 20 -23 7 -73 28 -113 46 -39 18 -89 41 -111 50 -22 10 -58 26 -80
36 -22 10 -48 20 -57 23 -19 7 -25 51 -9 61 5 3 11 16 14 28 49 205 49 251 0
456 -3 12 -9 25 -14 28 -5 3 -9 12 -9 19 0 49 -140 212 -240 278 -30 20 -60
41 -67 47 -7 5 -21 10 -31 10 -10 0 -22 3 -26 7 -16 16 -107 34 -203 40 -79 4
-123 2 -193 -12 -49 -11 -90 -22 -90 -27 0 -4 -9 -8 -20 -8 -26 0 -54 -15
-104 -57 -8 -7 -19 -13 -24 -13 -6 0 -38 -29 -73 -64 -75 -75 -89 -92 -89
-106 0 -5 -4 -10 -8 -10 -12 0 -48 -75 -67 -140 -9 -30 -21 -63 -26 -72 -12
-23 -12 -283 0 -306 5 -9 18 -45 28 -79 10 -35 21 -63 26 -63 4 0 7 -9 7 -19
0 -11 3 -21 8 -23 4 -1 25 -28 47 -58 44 -61 121 -137 148 -146 9 -3 17 -10
17 -15 0 -5 7 -9 15 -9 8 0 15 -3 15 -7 0 -9 49 -33 67 -33 7 0 13 -4 13 -9 0
-5 12 -11 27 -14 16 -4 57 -13 93 -22 103 -26 161 -29 236 -11 101 23 212 60
232 76 40 34 66 39 107 19 21 -11 45 -19 52 -19 7 0 13 -4 13 -10 0 -5 7 -10
15 -10 8 0 23 -4 33 -8 9 -5 42 -21 72 -35 30 -15 61 -27 68 -27 6 0 12 -4 12
-10 0 -5 7 -10 15 -10 8 0 23 -4 33 -9 50 -26 183 -81 197 -81 8 0 15 -4 15
-10 0 -5 7 -10 15 -10 8 0 23 -4 33 -9 9 -5 49 -21 87 -36 39 -15 78 -31 87
-36 10 -5 26 -9 36 -9 10 0 22 -4 28 -9 5 -4 43 -21 84 -35 81 -30 116 -44
142 -57 10 -5 29 -9 43 -9 14 0 25 -4 25 -9 0 -5 12 -11 27 -14 16 -3 55 -14
88 -26 33 -12 76 -26 95 -32 19 -6 44 -14 55 -19 11 -4 47 -16 80 -25 110 -31
130 -37 147 -46 10 -5 29 -9 42 -9 14 0 28 -4 31 -10 3 -5 19 -10 36 -10 16 0
37 -4 47 -9 9 -5 46 -17 82 -26 36 -10 74 -21 85 -25 11 -5 34 -11 50 -14 17
-2 50 -10 75 -16 25 -6 61 -14 80 -16 19 -3 44 -9 55 -14 11 -4 47 -14 80 -20
33 -7 80 -16 105 -22 42 -8 80 -15 215 -38 28 -5 84 -13 125 -19 41 -6 82 -13
91 -16 18 -6 125 -20 274 -36 84 -9 180 -18 403 -35 86 -6 92 -8 86 -26 -6
-19 -43 -80 -64 -105 -5 -7 -10 -16 -10 -22 0 -5 -3 -11 -7 -13 -11 -4 -63
-86 -63 -98 0 -5 -4 -10 -10 -10 -5 0 -10 -4 -10 -10 0 -8 -86 -137 -100 -150
-3 -3 -14 -22 -25 -43 -11 -21 -27 -46 -35 -55 -8 -9 -21 -29 -29 -44 -8 -16
-18 -28 -23 -28 -4 0 -8 -5 -8 -11 0 -6 -11 -25 -25 -43 -14 -18 -25 -38 -25
-44 0 -7 -4 -12 -10 -12 -5 0 -10 -7 -10 -15 0 -8 -4 -15 -10 -15 -5 0 -10 -6
-10 -13 0 -7 -8 -22 -18 -33 -10 -10 -27 -35 -38 -54 -17 -31 -69 -107 -94
-137 -6 -7 -10 -17 -10 -23 0 -5 -4 -10 -10 -10 -5 0 -10 -4 -10 -10 0 -10
-89 -152 -101 -160 -4 -3 -19 -27 -34 -55 -16 -27 -31 -52 -34 -55 -13 -11
-51 -70 -51 -80 0 -5 -3 -10 -8 -10 -4 0 -16 -16 -26 -35 -11 -19 -23 -35 -28
-35 -4 0 -8 -9 -8 -20 0 -11 -4 -20 -8 -20 -5 0 -17 -16 -28 -35 -10 -19 -21
-35 -25 -35 -4 0 -12 -13 -19 -30 -7 -16 -16 -30 -21 -30 -5 0 -9 -9 -9 -20 0
-11 -4 -20 -10 -20 -5 0 -19 -18 -30 -39 -11 -22 -31 -51 -45 -65 -14 -14 -25
-30 -25 -36 0 -6 -29 -53 -63 -103 -35 -51 -72 -108 -83 -127 -10 -19 -24 -40
-30 -46 -6 -7 -26 -36 -45 -66 -18 -29 -39 -59 -46 -66 -7 -7 -20 -28 -29 -47
-9 -19 -20 -35 -25 -35 -5 0 -9 -5 -9 -11 0 -6 -11 -25 -25 -43 -14 -18 -25
-38 -25 -44 0 -7 -4 -12 -10 -12 -5 0 -10 -5 -10 -11 0 -6 -25 -46 -55 -89
-30 -43 -55 -83 -55 -89 0 -6 -3 -11 -8 -11 -4 0 -16 -16 -26 -35 -11 -19 -23
-35 -28 -35 -4 0 -8 -9 -8 -19 0 -11 -3 -21 -7 -23 -10 -4 -55 -66 -72 -99
-18 -36 -56 -79 -70 -79 -6 0 -19 4 -29 9 -9 5 -50 15 -91 22 -59 10 -93 10
-173 0 -55 -7 -108 -16 -117 -21 -9 -5 -46 -21 -84 -36 -37 -16 -67 -32 -67
-36 0 -5 -6 -8 -13 -8 -7 0 -23 -9 -35 -20 -12 -11 -24 -20 -27 -20 -7 0 -35
-26 -35 -33 0 -3 -15 -20 -33 -39 -62 -64 -127 -169 -127 -203 0 -8 -4 -15
-10 -15 -5 0 -10 -13 -10 -28 0 -15 -6 -34 -12 -40 -9 -9 -13 -57 -13 -162 0
-105 4 -153 13 -162 6 -6 12 -24 12 -40 0 -15 12 -49 27 -75 14 -26 31 -57 37
-68 6 -10 17 -25 23 -33 7 -7 13 -17 13 -21 0 -11 130 -141 141 -141 4 0 14
-6 22 -14 17 -18 163 -86 182 -86 8 0 17 -4 20 -10 3 -5 23 -10 43 -10 20 0
57 -5 82 -11 102 -23 305 34 433 123 41 28 167 154 167 167 0 5 6 16 12 23 11
11 57 106 78 163 39 102 33 315 -11 412 -10 24 -19 47 -19 53 0 10 -28 58 -40
70 -3 3 -12 19 -20 35 -8 17 -22 37 -31 45 -9 8 -18 22 -21 30 -6 16 21 70 34
70 4 0 8 9 8 20 0 11 5 20 10 20 6 0 10 7 10 15 0 8 3 15 8 15 4 0 20 23 37
50 16 28 33 50 37 50 4 0 8 8 8 19 0 10 7 24 15 31 8 7 25 30 37 51 12 22 25
39 30 39 4 0 8 7 8 15 0 8 5 15 10 15 6 0 10 5 10 10 0 6 5 16 10 23 15 17 53
77 69 110 8 15 18 27 23 27 4 0 8 4 8 10 0 5 16 32 35 59 19 26 35 53 35 60 0
6 4 11 9 11 5 0 14 14 21 30 7 17 15 30 19 30 4 0 15 16 25 35 11 19 23 35 28
35 4 0 8 9 8 20 0 11 4 20 8 20 5 0 17 16 28 35 10 19 22 35 26 35 5 0 8 6 8
13 0 7 9 23 20 35 11 12 20 26 20 31 0 5 6 16 13 23 21 23 57 77 57 85 0 5 9
15 20 23 11 8 20 22 20 32 0 10 4 18 9 18 5 0 12 8 15 18 4 10 14 27 24 38 9
10 24 33 32 49 8 17 17 32 20 35 3 3 43 64 90 135 46 72 88 132 92 133 4 2 8
8 8 14 0 5 20 38 45 72 25 35 45 68 45 74 0 6 3 12 8 14 8 3 212 314 212 323
0 3 5 11 10 18 46 55 60 73 60 83 0 5 8 19 18 30 26 29 132 192 132 204 0 5 3
10 8 10 4 0 16 16 26 35 11 19 23 35 28 35 4 0 8 9 8 20 0 11 4 20 8 20 5 0
17 16 28 35 10 19 22 35 26 35 5 0 8 8 8 18 0 10 9 24 20 32 11 8 20 18 20 22
0 5 16 31 35 58 19 27 35 54 35 60 0 5 4 10 9 10 5 0 13 9 16 20 9 30 28 24
49 -15 11 -19 23 -35 28 -35 4 0 8 -7 8 -15 0 -8 13 -29 30 -46 16 -17 32 -40
35 -50 4 -11 11 -19 16 -19 5 0 9 -7 9 -15 0 -8 5 -15 10 -15 6 0 10 -7 10
-15 0 -9 5 -21 10 -28 41 -49 53 -65 67 -94 8 -18 19 -33 24 -33 5 0 9 -4 9
-9 0 -9 125 -200 150 -228 5 -7 10 -17 10 -23 0 -5 5 -10 10 -10 6 0 10 -7 10
-15 0 -9 9 -26 20 -38 29 -31 160 -225 160 -237 0 -6 5 -10 10 -10 6 0 10 -7
10 -15 0 -8 4 -15 8 -15 5 0 15 -12 23 -27 7 -16 44 -72 81 -126 38 -54 68
-102 68 -107 0 -6 5 -10 10 -10 6 0 10 -6 10 -13 0 -7 8 -22 18 -33 10 -10 27
-34 37 -51 11 -18 23 -33 27 -33 4 0 8 -9 8 -19 0 -11 3 -21 8 -23 11 -5 102
-135 102 -146 0 -6 3 -12 8 -14 4 -1 22 -26 40 -54 18 -28 44 -64 57 -80 14
-16 25 -33 25 -38 0 -5 11 -24 25 -42 14 -18 25 -35 25 -39 0 -3 9 -15 20 -27
11 -12 20 -28 20 -35 0 -7 3 -13 8 -13 4 0 16 -16 26 -35 11 -19 23 -35 28
-35 4 0 8 -5 8 -11 0 -6 25 -46 55 -89 30 -43 55 -83 55 -88 0 -6 3 -12 8 -14
4 -1 25 -31 47 -65 22 -35 43 -63 48 -63 4 0 7 -5 7 -10 0 -6 16 -33 35 -60
19 -27 35 -53 35 -58 0 -4 9 -14 20 -22 11 -8 20 -22 20 -32 0 -10 3 -18 8
-18 4 0 16 -16 26 -35 11 -19 23 -35 28 -35 4 0 8 -6 8 -13 0 -7 9 -23 20 -35
11 -12 20 -24 20 -27 0 -9 53 -79 63 -83 4 -2 7 -12 7 -22 0 -10 4 -20 8 -22
14 -6 52 -66 52 -82 0 -9 -13 -30 -30 -48 -16 -17 -30 -39 -30 -49 0 -9 -4
-19 -8 -21 -14 -5 -62 -97 -62 -116 0 -10 -4 -22 -8 -27 -29 -33 -46 -289 -23
-333 5 -9 17 -43 26 -74 9 -32 21 -60 26 -64 5 -3 9 -13 9 -23 0 -9 9 -27 20
-39 11 -12 20 -27 20 -34 0 -7 25 -37 55 -67 30 -29 55 -56 55 -60 1 -9 85
-71 98 -71 7 0 12 -4 12 -10 0 -5 8 -10 18 -10 9 0 26 -7 36 -15 39 -30 207
-70 286 -69 64 2 171 17 176 25 3 5 12 9 19 9 18 0 129 52 133 62 2 4 10 8 18
8 7 0 24 8 36 17 37 29 168 157 168 165 0 3 15 32 33 65 18 32 39 78 47 103 7
25 17 49 22 55 12 13 10 325 -2 325 -5 0 -10 8 -10 18 0 35 -66 182 -82 182
-4 0 -8 6 -8 14 0 32 -161 177 -249 223 -67 36 -220 73 -302 73 -54 0 -155
-17 -185 -32 -31 -15 -53 -7 -72 27 -19 33 -24 40 -53 75 -11 13 -27 39 -36
57 -8 18 -19 33 -24 33 -5 0 -9 4 -9 9 0 5 -25 45 -55 89 -30 44 -55 83 -55
86 0 4 -5 12 -10 19 -42 50 -80 104 -80 115 0 6 -4 12 -8 12 -5 0 -17 16 -28
35 -10 19 -22 35 -26 35 -5 0 -8 7 -8 15 0 8 -4 15 -10 15 -5 0 -10 5 -10 12
0 6 -11 26 -25 44 -14 18 -25 37 -25 43 0 6 -4 11 -10 11 -5 0 -10 6 -10 13 0
6 -9 23 -20 37 -52 66 -90 121 -90 130 0 10 -20 37 -52 72 -10 10 -18 25 -18
33 0 8 -4 15 -10 15 -5 0 -10 7 -10 15 0 8 -4 15 -10 15 -5 0 -10 9 -10 19 0
11 -4 21 -9 23 -11 4 -171 235 -171 246 0 5 -8 17 -18 28 -18 20 -194 282
-201 299 -2 5 -19 28 -38 51 -18 23 -33 44 -33 48 0 3 -29 49 -65 101 -36 52
-65 99 -65 105 0 5 -3 10 -8 10 -4 0 -16 16 -26 35 -11 19 -22 35 -26 35 -4 0
-13 13 -20 30 -7 16 -16 30 -21 30 -5 0 -9 5 -9 11 0 6 -11 25 -25 43 -14 18
-25 38 -25 44 0 7 -4 12 -10 12 -5 0 -10 6 -10 13 0 7 -9 19 -20 27 -11 8 -20
22 -20 32 0 10 -4 18 -8 18 -5 0 -17 16 -28 35 -10 19 -22 35 -26 35 -5 0 -8
5 -8 10 0 8 -132 209 -167 255 -5 6 -14 22 -22 38 -8 15 -18 27 -23 27 -4 0
-8 4 -8 10 0 5 -16 32 -35 59 -19 26 -35 53 -35 60 0 6 -5 11 -11 11 -5 0 -8
4 -5 9 6 10 71 18 236 31 191 15 413 41 509 60 29 5 70 10 90 10 21 0 41 4 47
9 5 5 32 12 59 15 61 6 154 21 215 34 25 6 81 18 125 27 129 28 168 36 203 42
18 3 35 9 38 14 3 5 17 9 31 9 15 0 40 4 57 10 54 16 147 42 261 72 46 12 99
27 135 39 14 4 52 15 85 24 33 9 68 21 77 26 10 5 25 9 33 9 8 0 23 4 33 9 26
13 180 61 197 61 8 0 15 5 15 10 0 6 11 10 24 10 14 0 28 5 31 10 3 6 17 10
30 10 13 0 27 5 30 10 3 6 14 10 23 10 16 0 125 40 164 61 10 5 25 9 33 9 8 0
23 4 33 9 18 9 42 19 112 46 25 9 53 21 62 26 10 5 25 9 33 9 8 0 15 5 15 10
0 6 8 10 19 10 10 0 45 11 77 25 33 14 68 29 79 34 20 8 56 25 168 75 32 14
64 26 72 26 8 0 15 5 15 10 0 6 6 10 14 10 14 0 29 7 146 63 68 33 85 33 124
4 30 -23 86 -54 136 -75 48 -21 170 -42 240 -42 71 0 200 22 232 40 10 6 27
10 38 10 11 0 20 3 20 8 0 4 15 14 33 22 34 15 44 21 82 58 13 12 27 22 31 22
11 0 106 107 123 138 6 11 17 26 23 34 17 17 34 64 64 168 24 89 32 227 15
272 -5 13 -14 48 -21 78 -12 56 -58 162 -72 168 -4 2 -8 8 -8 13 0 10 -11 24
-47 64 -13 13 -23 28 -23 32 0 4 -25 26 -55 48 -30 22 -55 42 -55 46 0 4 -8 9
-17 12 -10 3 -29 12 -43 20 -53 31 -118 53 -208 72 -85 17 -110 17 -213 0z
m220 -328 c19 -9 40 -17 48 -17 7 0 13 -3 13 -7 0 -5 20 -21 45 -38 24 -16 50
-41 57 -55 7 -14 15 -27 19 -30 12 -11 39 -79 49 -123 12 -58 1 -145 -29 -209
-23 -51 -106 -142 -138 -152 -13 -4 -23 -12 -23 -17 0 -5 -10 -9 -23 -9 -13 0
-28 -5 -35 -12 -16 -16 -179 -15 -195 1 -6 6 -24 11 -39 11 -15 0 -28 4 -28 8
0 5 -12 15 -27 23 -98 50 -163 173 -163 306 0 39 5 75 10 78 6 3 10 15 10 26
0 24 15 51 59 107 37 47 92 86 161 113 58 23 180 21 229 -4z m-8672 -6 c10 -5
31 -15 48 -22 16 -8 56 -41 90 -75 52 -52 63 -70 83 -135 25 -83 27 -116 11
-168 -31 -96 -48 -128 -94 -175 -54 -54 -82 -76 -98 -76 -7 0 -17 -4 -22 -9
-17 -15 -142 -32 -187 -25 -24 3 -53 13 -65 20 -12 8 -30 14 -39 14 -19 0 -26
6 -92 72 -109 108 -134 294 -57 418 42 68 122 137 168 147 15 3 27 9 27 14 0
19 190 19 227 0z m1929 -5058 c24 -13 57 -38 75 -54 17 -16 35 -29 39 -29 4 0
13 -12 19 -27 6 -16 15 -35 20 -43 27 -45 44 -108 43 -160 -1 -51 -13 -120
-21 -120 -4 0 -12 -15 -19 -34 -7 -18 -20 -43 -30 -54 -10 -11 -27 -32 -37
-46 -11 -14 -25 -26 -32 -26 -7 0 -13 -3 -13 -8 0 -4 -27 -20 -61 -36 -56 -26
-67 -28 -155 -24 -54 2 -99 9 -106 16 -7 7 -20 12 -30 12 -10 0 -18 5 -18 10
0 6 -7 10 -15 10 -8 0 -15 5 -15 10 0 6 -5 10 -10 10 -19 0 -86 78 -113 132
-24 47 -27 65 -27 151 0 87 3 102 25 137 14 22 25 44 25 50 0 5 5 10 10 10 6
0 10 5 10 11 0 14 81 88 98 89 6 0 12 5 12 10 0 6 8 10 18 10 10 0 22 4 28 9
13 14 78 19 163 13 52 -3 85 -11 117 -29z m4814 -1 c26 -15 63 -41 82 -57 37
-34 88 -117 88 -146 0 -10 5 -21 10 -24 14 -9 12 -143 -3 -185 -39 -107 -97
-175 -187 -218 -48 -24 -67 -27 -155 -27 -90 0 -105 3 -153 28 -92 48 -167
142 -185 232 -16 81 -19 127 -8 138 6 6 11 22 11 35 0 29 60 142 75 142 5 0
21 14 34 31 51 64 141 91 270 82 54 -4 86 -12 121 -31z"/>
<path d="M469 5419 c-19 -12 -26 -565 -9 -711 13 -113 27 -241 37 -331 3 -31
9 -60 14 -63 5 -3 9 -32 9 -65 0 -32 4 -67 9 -77 10 -19 50 -186 58 -245 3
-20 9 -40 14 -43 5 -3 9 -18 9 -34 0 -16 4 -31 9 -34 5 -3 11 -20 14 -38 9
-55 51 -193 59 -196 4 -2 8 -15 8 -28 0 -13 4 -32 9 -42 22 -43 81 -197 81
-211 0 -6 5 -11 10 -11 6 0 10 -11 10 -25 0 -14 5 -25 10 -25 6 0 10 -7 10
-15 0 -18 32 -89 43 -93 4 -2 7 -10 7 -17 0 -12 9 -32 61 -137 37 -75 111
-212 136 -250 12 -21 23 -42 23 -48 0 -5 5 -10 10 -10 6 0 10 -7 10 -15 0 -8
3 -15 8 -15 4 0 20 -25 37 -55 16 -30 33 -55 37 -55 4 0 8 -5 8 -11 0 -12 123
-192 157 -229 13 -14 23 -29 23 -34 0 -5 8 -16 18 -25 9 -9 30 -34 47 -56 16
-22 36 -47 45 -55 8 -8 28 -33 45 -55 16 -22 42 -52 57 -67 15 -14 28 -28 28
-31 0 -3 41 -47 90 -98 50 -51 90 -96 90 -101 0 -19 41 -5 57 20 10 15 22 32
28 38 5 6 19 24 30 40 11 15 39 47 62 69 24 23 43 44 43 48 0 4 -26 33 -57 65
-32 33 -80 85 -108 117 -27 32 -55 63 -60 69 -18 18 -109 130 -130 160 -11 15
-27 36 -36 46 -8 10 -24 31 -35 45 -10 15 -34 46 -51 68 -18 23 -33 48 -33 55
0 6 -4 12 -10 12 -5 0 -10 5 -10 11 0 6 -6 17 -12 24 -25 28 -38 44 -38 48 0
3 -25 46 -55 96 -30 51 -55 96 -55 101 0 6 -3 10 -8 10 -4 0 -18 21 -32 48
-13 26 -35 64 -47 84 -13 21 -23 44 -23 53 0 8 -3 15 -8 15 -4 0 -13 15 -21
33 -8 17 -27 61 -44 97 -16 36 -35 79 -42 95 -7 17 -22 52 -34 78 -12 26 -28
69 -37 95 -8 26 -19 56 -23 67 -5 11 -14 36 -21 55 -7 19 -16 44 -20 55 -20
47 -53 153 -61 190 -4 22 -13 58 -19 80 -11 41 -32 131 -51 220 -33 151 -30
133 -58 345 -21 154 -32 372 -29 602 1 131 -1 240 -4 243 -2 3 -36 9 -74 14
-38 6 -85 15 -104 21 -67 22 -98 27 -111 19z"/>
<path d="M9696 5413 c-13 -13 -119 -32 -183 -32 -76 -1 -86 -14 -72 -83 16
-71 -2 -723 -20 -763 -5 -11 -12 -40 -15 -65 -9 -76 -24 -171 -41 -255 -9 -44
-19 -97 -22 -118 -3 -20 -9 -40 -14 -43 -5 -3 -9 -20 -9 -39 0 -19 -4 -44 -9
-57 -5 -13 -17 -50 -26 -83 -9 -33 -20 -68 -26 -77 -5 -10 -9 -29 -9 -43 0
-14 -4 -25 -10 -25 -5 0 -10 -13 -10 -28 0 -15 -4 -32 -8 -38 -5 -5 -15 -29
-22 -54 -8 -25 -24 -67 -37 -94 -13 -28 -23 -53 -23 -58 0 -4 -16 -42 -35 -84
-19 -41 -35 -82 -35 -89 0 -8 -4 -17 -10 -20 -5 -3 -10 -15 -10 -26 0 -10 -4
-19 -10 -19 -5 0 -10 -9 -10 -19 0 -11 -3 -21 -7 -23 -5 -1 -30 -48 -58 -103
-27 -55 -63 -122 -80 -150 -17 -27 -42 -71 -55 -97 -14 -27 -28 -48 -32 -48
-5 0 -8 -6 -8 -13 0 -8 -11 -27 -25 -43 -14 -16 -25 -35 -25 -41 0 -7 -4 -13
-10 -13 -5 0 -10 -5 -10 -10 0 -6 -4 -16 -10 -23 -45 -56 -60 -76 -60 -83 0
-5 -14 -25 -31 -44 -16 -19 -37 -47 -47 -62 -9 -16 -20 -28 -24 -28 -4 0 -8
-6 -8 -13 0 -7 -10 -23 -22 -35 -13 -11 -27 -27 -33 -34 -12 -16 -101 -122
-135 -162 -14 -15 -62 -67 -107 -114 -46 -48 -83 -94 -83 -103 0 -10 11 -26
25 -37 14 -11 25 -23 25 -26 0 -4 11 -18 24 -31 14 -14 39 -49 58 -80 18 -30
39 -55 47 -55 14 0 177 162 225 224 13 17 39 47 58 67 18 20 46 53 63 74 16
21 44 54 62 74 18 20 33 39 33 42 0 3 8 15 18 27 10 11 27 33 38 48 10 15 33
45 50 68 16 22 51 73 77 111 26 39 51 75 57 82 5 7 10 17 10 23 0 5 5 10 10
10 6 0 10 5 10 10 0 6 16 36 35 66 19 30 35 59 35 64 0 6 5 10 10 10 6 0 10 8
10 18 0 10 8 27 18 38 10 10 36 55 57 99 22 44 54 106 72 138 18 33 33 63 33
69 0 5 15 42 33 81 19 40 40 87 48 105 8 17 17 32 21 32 5 0 8 16 8 35 0 19 5
35 10 35 6 0 10 7 10 15 0 8 4 23 9 33 23 46 41 95 41 112 0 10 5 22 10 25 6
3 10 17 10 31 0 13 5 24 10 24 6 0 10 13 10 28 0 16 3 32 7 35 8 9 53 171 60
220 3 20 9 40 14 43 5 3 9 20 9 38 0 17 4 36 9 41 5 6 11 28 14 50 3 22 13 74
22 115 35 167 42 223 70 595 11 140 14 265 10 375 -8 220 -13 260 -35 260 -9
0 -20 -3 -24 -7z"/>
<path d="M3564 955 c-3 -14 -10 -25 -15 -25 -5 0 -9 -10 -9 -22 0 -13 -9 -34
-20 -48 -11 -14 -20 -33 -20 -42 0 -10 -3 -18 -7 -18 -11 0 -43 -58 -43 -76 0
-8 7 -14 15 -14 8 0 15 -4 15 -10 0 -5 14 -10 30 -10 17 0 30 -3 30 -7 0 -5
30 -17 66 -28 36 -11 68 -23 70 -27 3 -5 16 -8 29 -8 13 0 26 -4 29 -9 3 -5
20 -11 38 -14 41 -7 85 -18 213 -52 55 -15 123 -31 150 -36 28 -5 73 -14 100
-20 28 -5 81 -14 118 -19 37 -5 75 -11 85 -14 66 -21 436 -46 672 -45 274 1
488 17 720 54 58 9 121 19 140 22 19 2 44 8 55 13 11 5 38 11 60 13 22 2 83
17 135 31 87 25 114 32 205 51 17 4 37 9 45 12 66 26 209 76 228 80 22 5 33
43 12 43 -5 0 -10 4 -10 10 0 5 -16 34 -35 64 -19 30 -35 60 -35 65 0 6 -11
30 -24 53 -21 36 -29 43 -52 40 -15 -2 -40 -10 -55 -18 -16 -8 -39 -14 -53
-14 -14 0 -28 -4 -31 -10 -3 -5 -17 -10 -30 -10 -13 0 -26 -4 -29 -9 -3 -5
-18 -11 -33 -14 -16 -3 -73 -17 -128 -32 -95 -25 -132 -33 -250 -55 -27 -6
-72 -14 -100 -20 -86 -17 -354 -49 -505 -61 -268 -21 -672 4 -980 62 -30 5
-76 13 -102 16 -27 2 -48 9 -48 14 0 5 -18 9 -40 9 -21 0 -49 4 -62 9 -13 5
-57 17 -98 26 -41 9 -100 25 -131 36 -30 10 -63 19 -72 19 -9 0 -17 5 -17 10
0 6 -15 10 -34 10 -19 0 -36 3 -38 8 -4 10 -101 42 -127 42 -14 0 -23 -8 -27
-25z"/>
</g>
</svg>
