<?xml version="1.0" standalone="no"?>
<!DOCTYPE svg PUBLIC "-//W3C//DTD SVG 20010904//EN"
 "http://www.w3.org/TR/2001/REC-SVG-20010904/DTD/svg10.dtd">
<svg version="1.0" xmlns="http://www.w3.org/2000/svg"
 width="2500.000000pt" height="2500.000000pt" viewBox="0 0 2500.000000 2500.000000"
 preserveAspectRatio="xMidYMid meet">

<g transform="translate(0.000000,2500.000000) scale(0.100000,-0.100000)"
fill="#000000" stroke="none">
<path d="M12020 22479 c-1224 -62 -2400 -333 -3490 -806 -1451 -629 -2730
-1592 -3741 -2818 -1256 -1521 -2027 -3364 -2228 -5325 -40 -388 -46 -526 -46
-1030 0 -502 6 -639 46 -1030 227 -2268 1240 -4400 2859 -6021 647 -647 1289
-1144 2071 -1601 1374 -804 3042 -1287 4612 -1335 l207 -6 0 2270 0 2270 -236
6 c-477 13 -945 97 -1454 262 -446 144 -857 340 -1264 602 -591 382 -1091 864
-1508 1453 -760 1075 -1105 2431 -952 3750 200 1736 1212 3265 2733 4130 207
118 506 257 736 344 584 221 1153 339 1708 353 l237 6 0 2269 0 2268 -67 -1
c-38 -1 -138 -6 -223 -10z"/>
</g>
</svg>
