<?xml version="1.0" standalone="no"?>
<!DOCTYPE svg PUBLIC "-//W3C//DTD SVG 20010904//EN"
 "http://www.w3.org/TR/2001/REC-SVG-20010904/DTD/svg10.dtd">
<svg version="1.0" xmlns="http://www.w3.org/2000/svg"
 width="1875.000000pt" height="1875.000000pt" viewBox="0 0 1875.000000 1875.000000"
 preserveAspectRatio="xMidYMid meet">

<g transform="translate(0.000000,1875.000000) scale(0.100000,-0.100000)"
fill="#000000" stroke="none">
<path d="M9080 16864 c-526 -28 -772 -58 -1195 -145 -1393 -285 -2642 -934
-3668 -1906 -926 -877 -1614 -1981 -1995 -3198 -172 -549 -276 -1096 -324
-1705 -19 -244 -16 -873 5 -1132 109 -1297 528 -2502 1247 -3579 827 -1239
2046 -2224 3444 -2786 1035 -415 2223 -599 3326 -513 1190 92 2272 432 3282
1031 1865 1106 3166 2979 3548 5109 85 474 114 809 114 1325 1 497 -25 821
-99 1260 -368 2165 -1662 4058 -3545 5185 -975 584 -2123 951 -3240 1036 -186
14 -762 26 -900 18z m855 -2903 c1063 -146 1973 -590 2702 -1319 676 -676
1128 -1544 1287 -2472 54 -315 61 -400 61 -795 0 -395 -7 -480 -61 -795 -159
-927 -615 -1803 -1287 -2473 -348 -346 -715 -613 -1152 -838 -431 -222 -884
-372 -1351 -448 -246 -41 -340 -51 -565 -60 -1300 -55 -2550 437 -3475 1366
-730 734 -1177 1665 -1311 2733 -26 208 -26 822 0 1025 115 895 426 1659 950
2330 482 616 1120 1106 1842 1413 380 162 829 282 1235 331 237 29 231 29 620
26 292 -3 382 -7 505 -24z"/>
</g>
</svg>
