<?xml version="1.0" standalone="no"?>
<!DOCTYPE svg PUBLIC "-//W3C//DTD SVG 20010904//EN"
 "http://www.w3.org/TR/2001/REC-SVG-20010904/DTD/svg10.dtd">
<svg version="1.0" xmlns="http://www.w3.org/2000/svg"
 width="3125.000000pt" height="3125.000000pt" viewBox="0 0 3125.000000 3125.000000"
 preserveAspectRatio="xMidYMid meet">

<g transform="translate(0.000000,3125.000000) scale(0.100000,-0.100000)"
fill="#000000" stroke="none">
<path d="M15560 27789 c-86 -7 -228 -15 -445 -24 -66 -3 -136 -10 -155 -15
-51 -13 -185 -29 -353 -40 -96 -6 -158 -15 -177 -25 -17 -9 -90 -22 -163 -30
-72 -7 -149 -21 -169 -29 -21 -9 -62 -16 -93 -16 -34 0 -89 -11 -143 -29 -48
-15 -123 -32 -167 -36 -46 -4 -104 -17 -136 -31 -31 -13 -87 -26 -125 -30 -38
-4 -89 -16 -113 -26 -25 -10 -77 -23 -115 -28 -39 -5 -98 -21 -131 -35 -33
-13 -76 -25 -95 -25 -19 0 -55 -10 -80 -21 -25 -11 -78 -27 -118 -35 -40 -7
-85 -20 -100 -28 -15 -7 -54 -19 -87 -26 -33 -7 -76 -20 -95 -30 -19 -9 -60
-23 -90 -30 -30 -7 -72 -21 -92 -31 -21 -11 -45 -19 -55 -19 -10 0 -50 -13
-88 -30 -39 -16 -77 -30 -87 -30 -9 0 -45 -13 -80 -30 -34 -16 -71 -30 -81
-30 -10 0 -37 -11 -60 -24 -23 -13 -57 -27 -76 -31 -18 -4 -54 -18 -80 -30
-25 -13 -73 -33 -106 -46 -33 -12 -67 -27 -75 -35 -8 -7 -28 -16 -45 -19 -30
-7 -84 -31 -210 -91 -38 -19 -74 -34 -78 -34 -5 0 -20 -9 -34 -20 -14 -11 -43
-25 -65 -30 -21 -6 -55 -22 -75 -35 -20 -14 -43 -25 -52 -25 -10 0 -32 -11
-51 -25 -18 -13 -49 -30 -69 -36 -20 -6 -43 -17 -51 -24 -8 -6 -51 -30 -95
-52 -134 -68 -212 -110 -236 -127 -13 -9 -31 -16 -40 -16 -9 0 -22 -7 -30 -16
-7 -8 -33 -27 -58 -40 -25 -14 -66 -38 -91 -54 -25 -16 -58 -36 -75 -44 -16
-7 -45 -26 -64 -40 -19 -14 -38 -26 -42 -26 -10 0 -109 -61 -143 -87 -16 -13
-35 -23 -42 -23 -7 0 -28 -12 -46 -27 -18 -16 -40 -32 -49 -38 -9 -5 -43 -28
-75 -50 -33 -22 -63 -42 -69 -45 -5 -3 -36 -23 -69 -45 -32 -22 -74 -50 -93
-61 -20 -12 -38 -26 -42 -31 -3 -6 -24 -22 -46 -36 -22 -15 -74 -51 -115 -82
-41 -30 -86 -63 -100 -73 -34 -23 -195 -145 -302 -229 -111 -88 -419 -348
-496 -421 -16 -15 -64 -58 -108 -97 -167 -148 -504 -485 -706 -705 -214 -233
-600 -695 -714 -853 -24 -34 -59 -81 -77 -104 -18 -23 -54 -72 -82 -110 -27
-37 -52 -70 -55 -73 -3 -3 -23 -32 -45 -65 -21 -33 -52 -75 -67 -93 -15 -18
-28 -39 -28 -46 0 -7 -11 -23 -25 -36 -14 -13 -25 -28 -25 -34 0 -5 -9 -19
-19 -30 -18 -20 -28 -35 -76 -115 -11 -18 -29 -45 -40 -60 -11 -14 -29 -43
-39 -63 -11 -21 -23 -38 -27 -38 -4 0 -12 -12 -18 -27 -6 -16 -29 -55 -51 -88
-22 -33 -47 -74 -55 -92 -8 -17 -27 -51 -42 -75 -16 -24 -34 -52 -41 -63 -7
-11 -19 -33 -26 -50 -8 -16 -23 -39 -34 -51 -11 -11 -23 -35 -26 -52 -4 -17
-14 -36 -23 -43 -8 -7 -26 -36 -39 -64 -13 -27 -49 -95 -79 -150 -30 -55 -66
-122 -80 -150 -13 -27 -29 -57 -34 -65 -28 -44 -283 -585 -296 -628 -4 -12
-17 -42 -31 -65 -13 -23 -24 -49 -24 -57 0 -8 -7 -28 -16 -45 -9 -16 -25 -52
-35 -80 -11 -27 -26 -63 -33 -80 -25 -54 -65 -159 -72 -190 -4 -16 -13 -39
-20 -50 -7 -11 -18 -42 -25 -70 -6 -27 -20 -64 -30 -81 -11 -17 -19 -44 -19
-60 0 -16 -13 -56 -28 -89 -16 -33 -32 -79 -35 -102 -4 -24 -18 -67 -31 -96
-13 -29 -26 -75 -30 -101 -4 -27 -17 -66 -28 -87 -11 -21 -22 -58 -25 -81 -3
-24 -16 -70 -29 -104 -13 -34 -26 -88 -30 -120 -3 -32 -13 -69 -21 -82 -7 -12
-21 -64 -29 -115 -9 -50 -23 -105 -31 -120 -8 -15 -18 -63 -23 -105 -10 -81
-21 -126 -39 -160 -6 -11 -15 -63 -21 -114 -5 -51 -18 -120 -29 -153 -10 -33
-27 -121 -36 -195 -9 -74 -23 -150 -31 -168 -7 -19 -18 -98 -23 -175 -6 -78
-19 -182 -30 -232 -13 -60 -22 -150 -26 -270 -3 -99 -14 -243 -23 -320 -14
-118 -17 -238 -16 -760 0 -412 5 -651 12 -711 7 -50 17 -203 22 -339 7 -176
17 -289 34 -389 14 -78 27 -202 31 -276 4 -90 13 -157 26 -200 11 -36 24 -117
29 -180 6 -78 16 -130 29 -161 13 -29 24 -85 30 -151 5 -58 16 -118 24 -134 8
-16 22 -78 31 -137 9 -60 23 -121 30 -135 7 -15 21 -72 30 -127 10 -55 22
-105 27 -111 6 -7 19 -53 29 -102 10 -49 25 -100 33 -113 8 -13 17 -50 20 -82
3 -32 15 -74 26 -93 12 -20 25 -63 31 -97 5 -34 20 -84 34 -111 14 -27 26 -62
26 -78 0 -16 11 -48 24 -71 13 -23 27 -62 31 -87 4 -25 15 -61 24 -80 10 -19
26 -59 36 -89 9 -29 24 -65 31 -80 8 -14 14 -31 14 -38 0 -7 11 -37 24 -67 13
-29 27 -69 31 -87 4 -19 13 -41 20 -49 7 -8 21 -40 31 -70 9 -30 23 -62 29
-70 7 -8 16 -26 20 -40 7 -25 36 -93 81 -185 13 -28 24 -55 24 -60 0 -5 23
-57 51 -115 28 -58 65 -134 82 -170 16 -36 36 -76 43 -90 8 -14 21 -41 29 -60
22 -50 84 -168 112 -212 13 -21 23 -43 23 -50 0 -6 6 -19 14 -27 8 -9 35 -59
61 -111 26 -52 53 -102 60 -110 7 -8 16 -26 20 -40 4 -14 15 -34 25 -45 10
-11 26 -36 37 -56 37 -73 66 -124 73 -129 4 -3 18 -25 31 -48 49 -90 58 -104
82 -140 13 -20 37 -58 53 -85 132 -216 470 -701 559 -800 14 -15 25 -31 25
-36 0 -5 6 -16 13 -23 7 -7 50 -62 97 -123 74 -96 258 -321 308 -374 9 -10 55
-63 102 -117 200 -230 701 -733 905 -909 38 -33 92 -81 120 -106 27 -26 65
-60 84 -75 19 -16 62 -54 95 -84 34 -30 81 -71 106 -90 24 -19 63 -51 86 -70
23 -19 56 -46 74 -60 18 -14 43 -34 56 -45 34 -28 77 -60 254 -190 85 -63 169
-124 185 -137 28 -23 145 -103 203 -140 15 -9 32 -21 38 -26 6 -6 30 -20 53
-31 22 -12 41 -25 41 -30 0 -5 13 -13 28 -19 16 -5 41 -22 57 -36 15 -14 34
-26 42 -26 7 0 27 -13 45 -30 17 -16 35 -30 41 -30 6 0 25 -11 43 -25 18 -14
43 -30 56 -35 13 -6 48 -26 78 -45 30 -19 69 -41 85 -49 17 -8 45 -26 64 -40
19 -14 40 -26 47 -26 7 0 25 -10 41 -23 15 -13 49 -34 76 -46 26 -13 47 -26
47 -30 0 -4 17 -13 38 -19 21 -7 47 -21 57 -32 10 -11 26 -20 35 -20 10 0 23
-6 29 -14 6 -8 35 -24 64 -36 29 -12 54 -25 57 -29 3 -3 30 -18 60 -33 30 -16
62 -32 70 -37 8 -5 31 -16 50 -25 19 -9 46 -23 60 -30 31 -17 124 -61 170 -81
19 -8 46 -22 60 -30 34 -19 104 -50 172 -75 32 -12 60 -25 63 -30 3 -5 29 -16
59 -24 29 -9 59 -22 65 -30 7 -8 31 -18 54 -21 23 -4 56 -18 73 -31 17 -13 41
-24 53 -24 12 0 45 -14 74 -30 30 -17 64 -30 77 -30 12 0 37 -8 54 -19 17 -10
54 -24 81 -31 28 -7 57 -19 65 -26 9 -7 38 -18 65 -24 28 -6 64 -20 82 -30 18
-10 49 -22 70 -26 21 -4 56 -17 78 -30 22 -12 62 -26 90 -30 27 -4 70 -17 95
-29 25 -12 65 -26 90 -29 25 -4 55 -14 68 -22 13 -8 57 -22 98 -29 41 -8 84
-21 97 -29 12 -8 51 -19 86 -25 35 -6 81 -19 101 -30 21 -11 67 -23 102 -27
35 -4 87 -17 117 -30 29 -13 72 -24 95 -24 49 0 138 -22 181 -44 17 -9 50 -16
75 -16 25 0 61 -5 80 -11 73 -22 206 -49 245 -49 22 0 65 -9 95 -19 30 -10
105 -24 165 -31 61 -6 137 -18 170 -25 33 -8 72 -16 87 -19 14 -3 108 -13 207
-21 99 -9 193 -20 208 -26 16 -6 119 -15 229 -20 111 -5 259 -15 330 -24 258
-30 539 -40 824 -27 146 6 335 18 420 26 85 8 227 18 315 21 88 4 183 11 210
16 28 5 178 20 334 34 156 14 290 30 297 36 8 6 76 19 151 30 76 10 156 25
178 33 22 8 66 15 97 16 33 0 88 10 131 24 40 14 104 28 142 32 39 4 95 17
125 29 30 13 89 26 130 30 43 4 96 17 125 30 28 12 73 25 102 28 28 3 70 15
92 26 22 12 72 25 111 31 39 6 81 17 93 25 12 8 55 21 95 30 40 8 82 21 95 29
12 8 42 17 67 21 25 4 65 18 90 30 25 13 69 26 97 30 29 4 64 16 78 26 13 11
52 24 86 30 33 5 73 19 87 29 15 11 49 24 75 29 26 5 56 16 65 24 10 9 44 23
76 31 32 9 64 20 70 26 7 5 42 19 79 30 36 11 69 25 72 29 3 5 24 12 46 16 23
4 57 18 77 31 19 13 43 24 52 24 9 0 41 13 71 29 30 15 68 31 84 35 17 4 37
14 45 21 8 7 34 18 56 24 23 6 52 19 65 30 13 10 38 22 56 25 18 4 47 18 66
30 19 13 50 26 69 30 20 4 47 15 60 25 13 10 40 23 60 29 21 6 50 19 65 30 15
10 45 25 65 31 21 7 40 16 43 21 3 5 29 20 58 34 28 14 59 30 67 35 8 6 35 19
60 31 71 33 124 61 140 75 8 7 26 16 40 20 14 4 39 18 55 30 17 13 46 31 65
40 52 24 113 59 146 82 16 11 43 27 59 35 56 28 180 101 210 123 17 13 40 26
53 30 12 3 22 10 22 16 0 5 21 20 48 34 26 14 58 33 72 44 14 10 52 36 85 57
33 21 66 45 73 52 7 6 17 12 21 12 9 0 161 107 206 145 17 14 40 28 53 31 12
4 22 10 22 15 0 4 37 33 83 64 45 30 92 63 105 74 33 29 27 46 -8 21 -17 -12
-43 -25 -58 -29 -15 -5 -54 -26 -87 -47 -67 -43 -111 -67 -270 -149 -60 -31
-117 -63 -125 -70 -8 -7 -26 -16 -40 -20 -14 -4 -44 -18 -67 -31 -23 -13 -49
-24 -58 -24 -9 0 -31 -11 -49 -25 -18 -14 -37 -25 -41 -25 -4 0 -35 -13 -69
-29 -133 -64 -194 -91 -203 -91 -6 0 -21 -9 -35 -19 -13 -11 -42 -24 -63 -30
-22 -6 -53 -20 -70 -31 -16 -11 -41 -20 -55 -20 -14 0 -45 -14 -70 -30 -25
-16 -55 -30 -67 -30 -11 0 -50 -13 -85 -30 -34 -16 -70 -30 -78 -30 -8 0 -36
-11 -61 -24 -25 -13 -63 -28 -84 -31 -22 -4 -53 -15 -70 -25 -16 -10 -48 -21
-69 -25 -22 -3 -61 -18 -88 -31 -26 -13 -58 -24 -71 -24 -13 0 -45 -11 -70
-24 -25 -14 -66 -28 -91 -31 -24 -4 -66 -18 -92 -31 -26 -13 -58 -24 -70 -24
-13 0 -45 -9 -72 -19 -27 -11 -83 -27 -124 -35 -41 -8 -90 -22 -108 -30 -19
-7 -73 -22 -119 -31 -47 -9 -94 -23 -105 -30 -12 -7 -52 -15 -91 -19 -38 -3
-94 -15 -124 -27 -30 -11 -93 -25 -140 -30 -47 -5 -113 -18 -146 -29 -33 -11
-102 -24 -153 -30 -52 -6 -119 -19 -150 -29 -32 -11 -100 -22 -152 -26 -52 -4
-133 -15 -180 -25 -47 -11 -161 -24 -255 -30 -93 -6 -217 -18 -275 -26 -193
-27 -538 -44 -900 -44 -379 0 -842 21 -974 44 -45 8 -160 20 -256 26 -96 7
-193 19 -215 27 -22 8 -101 18 -175 23 -74 4 -173 17 -220 29 -46 11 -118 23
-160 27 -41 3 -106 14 -145 24 -38 11 -107 24 -151 30 -45 6 -107 20 -139 31
-31 11 -98 26 -149 33 -50 8 -104 20 -121 29 -16 8 -66 21 -109 27 -44 7 -89
18 -100 25 -12 7 -52 18 -89 24 -38 5 -87 19 -108 30 -22 12 -53 21 -70 21
-17 0 -61 13 -99 30 -38 16 -79 30 -92 30 -13 0 -36 7 -53 16 -16 9 -60 25
-97 35 -37 10 -76 22 -86 28 -10 5 -63 26 -118 45 -54 18 -131 48 -171 65 -40
17 -77 31 -83 31 -6 0 -37 13 -68 28 -31 16 -72 31 -90 35 -18 4 -49 18 -70
32 -20 14 -47 25 -60 25 -13 0 -42 11 -65 24 -23 13 -56 27 -74 31 -17 3 -37
12 -43 20 -6 8 -35 21 -63 31 -29 9 -59 22 -67 29 -8 7 -33 18 -56 24 -22 6
-49 20 -58 30 -10 11 -32 23 -50 27 -17 3 -44 16 -61 29 -16 12 -46 25 -66 29
-20 3 -46 17 -59 31 -13 14 -29 25 -35 25 -14 0 -143 66 -165 84 -8 7 -31 19
-50 26 -19 7 -42 19 -50 25 -8 6 -33 21 -55 32 -98 49 -159 84 -175 98 -9 8
-24 15 -33 15 -8 0 -29 11 -45 25 -16 13 -40 29 -53 35 -13 6 -51 28 -84 50
-33 22 -97 62 -142 90 -46 28 -83 55 -83 60 0 4 -10 10 -22 14 -13 3 -34 16
-48 28 -14 13 -36 29 -50 36 -25 12 -83 52 -108 72 -7 6 -40 30 -75 54 -205
141 -522 377 -617 460 -20 17 -51 42 -69 56 -19 14 -55 44 -80 67 -25 22 -69
61 -97 85 -292 249 -737 686 -986 969 -13 15 -46 53 -75 85 -81 93 -235 275
-273 324 -19 25 -37 47 -40 50 -3 3 -21 27 -40 53 -19 27 -42 57 -50 66 -9 9
-73 93 -142 186 -70 94 -140 187 -157 209 -17 21 -31 44 -31 52 0 8 -4 14 -9
14 -4 0 -36 42 -70 93 -33 50 -69 103 -78 117 -44 67 -109 166 -118 180 -5 9
-20 32 -32 51 -12 19 -34 56 -50 82 -39 66 -82 137 -103 167 -9 14 -21 37 -25
50 -4 14 -18 39 -30 55 -12 17 -29 44 -37 60 -29 59 -66 124 -86 152 -10 15
-23 39 -27 53 -4 14 -13 32 -20 40 -8 8 -23 35 -34 60 -12 25 -37 72 -55 105
-19 33 -37 67 -41 75 -3 8 -19 41 -35 72 -17 31 -30 62 -30 69 0 7 -13 33 -29
58 -16 25 -32 59 -35 75 -4 16 -18 43 -30 60 -13 17 -27 48 -30 69 -4 20 -11
37 -16 37 -5 0 -18 25 -29 56 -12 31 -28 62 -36 71 -8 8 -15 24 -15 36 -1 12
-14 47 -30 77 -17 30 -30 63 -30 73 0 9 -11 34 -24 55 -13 20 -27 55 -31 77
-4 22 -15 49 -25 60 -10 11 -23 40 -29 65 -5 25 -21 70 -34 100 -13 30 -27 71
-31 91 -4 21 -13 42 -21 49 -8 6 -19 37 -26 68 -6 31 -19 73 -29 92 -10 19
-23 60 -29 90 -7 30 -19 65 -27 78 -9 13 -20 54 -26 90 -6 37 -20 87 -33 112
-12 25 -26 72 -30 105 -4 33 -16 77 -27 99 -11 21 -24 67 -29 100 -4 34 -16
76 -24 94 -9 18 -22 72 -30 121 -7 49 -19 100 -26 112 -7 13 -19 70 -26 126
-7 56 -22 125 -33 153 -11 28 -20 68 -20 89 0 47 -24 174 -40 216 -7 17 -16
84 -20 150 -5 66 -16 140 -25 165 -10 28 -22 116 -31 235 -8 105 -17 206 -20
225 -33 211 -35 247 -41 905 -5 649 -2 795 27 1135 5 63 14 135 20 160 6 25
14 113 20 195 5 84 18 183 28 225 11 41 22 122 25 180 4 73 12 119 26 150 11
26 24 88 29 147 6 56 15 110 21 121 5 10 17 66 26 123 9 57 24 129 34 159 10
30 24 84 31 120 6 36 18 79 26 95 7 17 18 61 23 98 5 37 19 84 30 103 13 22
24 66 30 114 5 49 17 93 30 115 11 20 24 55 27 78 4 23 13 53 20 67 7 14 20
55 29 90 9 36 25 83 35 105 10 22 21 56 25 75 4 19 15 49 25 65 10 17 21 48
25 70 4 22 17 59 30 81 12 23 26 59 29 80 4 22 18 55 30 74 13 19 26 53 30 75
4 22 18 56 30 75 12 19 26 49 29 67 4 18 17 49 30 70 13 21 27 54 31 74 3 21
13 42 21 49 8 7 15 19 15 28 0 8 13 38 28 66 16 28 32 64 36 80 4 16 18 43 32
59 13 16 24 38 24 49 0 11 9 33 20 49 12 15 26 43 32 61 6 18 19 43 29 56 10
13 23 40 30 60 6 20 17 44 24 52 13 14 41 67 84 158 11 24 29 55 41 69 11 14
20 33 20 43 0 9 11 29 24 43 13 14 29 42 36 61 6 19 18 40 26 47 8 6 23 30 34
53 11 22 33 61 50 86 16 25 38 61 47 80 10 19 28 48 40 63 13 16 23 34 23 42
0 7 7 18 15 25 7 6 29 37 47 67 52 88 118 187 223 333 80 111 133 188 179 255
34 51 76 107 121 162 6 7 24 31 40 53 30 41 65 86 120 155 38 47 243 295 295
355 21 25 73 86 115 135 42 50 100 115 128 145 29 31 99 106 157 169 124 133
312 323 432 436 246 231 317 296 358 329 81 66 123 101 154 128 40 34 154 124
206 163 23 17 49 37 58 46 9 9 35 28 57 43 22 14 74 51 115 81 107 78 191 135
200 135 4 0 15 10 26 21 10 12 33 28 49 36 17 8 46 25 65 38 19 13 49 34 65
45 64 44 216 140 222 140 3 0 21 11 39 25 18 14 37 25 42 25 5 0 26 14 47 30
21 17 42 30 48 30 6 0 43 23 84 50 40 28 77 50 82 50 4 0 28 13 52 30 24 16
51 30 59 30 8 0 33 14 54 30 22 17 46 30 54 30 8 0 26 8 40 18 48 33 179 102
194 102 8 0 23 9 33 20 10 11 22 20 27 20 14 0 181 80 198 95 8 7 31 16 50 20
19 4 48 18 65 30 16 13 45 26 64 30 18 4 49 18 68 31 20 13 43 24 51 24 8 0
29 8 46 19 17 10 54 27 81 37 28 9 59 24 70 31 11 7 26 13 35 13 8 0 42 14 74
30 32 17 68 30 80 30 12 0 38 12 59 26 21 14 55 28 75 31 20 3 61 19 91 35 30
15 63 28 75 28 12 0 31 6 42 14 11 8 47 22 79 32 33 9 76 25 95 35 19 11 46
19 60 19 14 0 52 13 85 30 33 16 74 30 92 30 17 0 60 13 95 30 34 16 75 30 90
30 15 0 57 11 93 25 36 13 89 27 118 31 29 3 71 15 94 26 24 11 75 24 115 29
40 5 92 18 114 29 23 11 79 25 125 31 46 6 117 22 158 35 40 13 87 24 105 24
17 0 60 7 95 15 35 9 109 22 165 30 56 8 124 21 151 29 28 9 100 21 160 26 61
6 117 13 125 16 23 8 240 34 415 50 421 38 1406 50 1770 21 110 -9 259 -19
330 -22 72 -3 162 -13 200 -21 85 -17 313 -44 375 -44 25 0 70 -9 100 -19 30
-10 113 -26 184 -36 71 -9 133 -18 137 -20 4 -3 60 -16 125 -30 65 -14 123
-30 129 -34 5 -5 42 -12 80 -16 39 -4 97 -17 130 -30 33 -13 92 -28 131 -33
40 -6 93 -20 119 -31 26 -12 73 -24 104 -27 31 -4 75 -17 97 -29 23 -12 67
-26 98 -29 31 -4 76 -18 99 -32 23 -13 58 -24 77 -24 20 0 54 -9 75 -21 22
-11 63 -26 92 -34 28 -7 61 -18 72 -25 11 -6 51 -20 88 -31 38 -12 77 -28 88
-35 11 -8 29 -14 41 -14 12 0 48 -13 79 -30 31 -16 65 -30 75 -30 10 0 44 -13
75 -30 31 -16 70 -30 85 -30 15 0 33 -7 40 -15 7 -8 38 -22 69 -32 31 -9 63
-22 71 -29 8 -7 38 -20 65 -29 28 -10 57 -23 65 -30 8 -7 33 -18 55 -25 22 -7
60 -23 85 -36 25 -13 51 -24 58 -24 7 0 30 -11 50 -25 20 -14 43 -25 52 -25 8
0 35 -14 59 -30 24 -17 51 -30 60 -30 9 0 36 -14 61 -30 25 -16 50 -30 56 -30
6 0 22 -8 35 -19 13 -10 40 -23 60 -30 20 -6 44 -20 54 -30 9 -11 29 -22 43
-26 15 -4 41 -17 57 -29 17 -13 42 -26 57 -29 14 -4 39 -18 55 -31 15 -13 38
-26 51 -30 12 -4 22 -11 22 -15 0 -4 23 -18 50 -31 28 -13 50 -27 50 -31 0 -7
54 -29 71 -29 16 0 9 28 -8 34 -9 4 -53 34 -97 67 -45 33 -128 93 -186 134
-58 40 -123 88 -146 104 -23 17 -44 31 -49 31 -4 0 -23 14 -42 30 -18 17 -39
30 -44 30 -6 0 -24 10 -39 23 -15 12 -51 36 -80 52 -29 17 -64 39 -78 51 -15
12 -44 29 -64 39 -21 9 -38 21 -38 26 0 5 -11 14 -25 19 -14 5 -80 43 -148 83
-67 41 -142 85 -166 98 -24 13 -65 36 -90 51 -25 15 -62 34 -81 44 -19 9 -48
27 -63 40 -16 13 -37 24 -46 24 -10 0 -36 13 -57 28 -22 16 -51 32 -66 35 -15
4 -44 18 -64 32 -20 14 -45 25 -54 25 -10 0 -23 7 -30 14 -6 8 -34 22 -61 31
-28 10 -53 23 -56 31 -3 8 -24 19 -47 25 -22 6 -50 19 -61 29 -11 10 -33 22
-50 26 -16 4 -55 19 -85 34 -109 55 -187 90 -200 90 -7 0 -33 11 -59 24 -44
23 -118 55 -223 96 -25 10 -70 29 -100 43 -29 13 -71 30 -93 37 -22 7 -47 18
-55 25 -8 7 -33 16 -55 20 -22 4 -60 18 -84 31 -24 13 -55 24 -70 24 -14 0
-39 7 -56 16 -16 9 -61 25 -99 35 -39 11 -72 23 -76 28 -3 5 -37 18 -76 29
-39 11 -84 26 -100 35 -16 8 -51 17 -79 21 -27 3 -62 15 -77 26 -17 13 -55 24
-95 29 -40 5 -88 20 -117 35 -27 14 -65 26 -85 26 -20 0 -63 12 -96 25 -33 14
-91 30 -129 35 -38 6 -90 20 -115 31 -25 11 -80 24 -121 29 -41 4 -91 15 -111
23 -19 9 -82 22 -140 31 -57 8 -121 22 -142 31 -21 8 -86 20 -145 26 -59 6
-125 17 -147 25 -22 8 -107 22 -190 31 -82 8 -162 22 -177 29 -17 9 -74 17
-140 20 -126 6 -301 30 -329 44 -9 6 -147 14 -306 20 -158 6 -376 14 -483 20
-223 11 -774 11 -900 -1z"/>
<path d="M15405 23953 c-58 -9 -197 -55 -258 -85 -312 -155 -470 -507 -388
-866 66 -287 270 -491 566 -566 134 -33 221 -40 333 -27 284 35 504 185 627
428 69 134 105 325 86 452 -34 228 -135 403 -305 528 -48 35 -184 99 -251 118
-59 17 -340 29 -410 18z m365 -247 c133 -47 229 -134 291 -264 52 -111 67
-201 51 -321 -17 -126 -60 -215 -151 -312 -123 -133 -280 -192 -460 -175 -290
27 -512 265 -511 549 1 227 126 422 327 508 74 32 108 37 251 38 116 1 141 -2
202 -23z"/>
<path d="M17216 23859 c-27 -4 -78 -23 -113 -41 -160 -81 -246 -261 -209 -437
37 -176 128 -253 461 -387 259 -105 335 -176 322 -301 -10 -94 -82 -166 -185
-184 -129 -23 -295 20 -394 101 -45 37 -87 116 -100 190 -14 80 -30 98 -98
109 -30 5 -67 14 -81 20 -20 7 -32 6 -44 -3 -15 -11 -17 -27 -13 -122 4 -99 7
-116 39 -184 28 -59 50 -89 105 -138 66 -61 206 -142 244 -142 9 0 54 -11 100
-25 124 -37 274 -36 388 4 124 43 202 111 255 221 29 61 31 72 32 175 0 105
-2 113 -34 178 -55 111 -168 199 -362 282 -46 20 -113 49 -149 64 -36 16 -73
31 -83 35 -9 3 -44 23 -76 45 -97 66 -122 130 -82 216 38 83 105 118 226 118
190 1 347 -99 370 -235 10 -55 32 -76 100 -94 100 -27 102 -27 124 -5 37 37
22 152 -33 258 -25 49 -115 142 -175 180 -141 90 -359 132 -535 102z"/>
<path d="M14113 23770 c-12 -5 -49 -12 -83 -16 -79 -9 -105 -29 -124 -102 -9
-31 -29 -97 -45 -147 -40 -124 -74 -233 -106 -340 -31 -105 -37 -119 -57 -123
-14 -3 -178 171 -362 382 -145 167 -154 172 -230 141 -19 -8 -59 -20 -88 -26
-103 -22 -102 -38 10 -153 412 -427 602 -627 617 -650 10 -15 21 -44 26 -64
30 -145 116 -444 133 -461 12 -11 25 -9 82 13 114 44 119 47 122 91 2 23 -7
70 -22 114 -40 123 -96 336 -96 367 0 41 23 122 65 239 20 55 42 120 49 145 7
25 18 55 24 66 6 12 20 52 31 90 32 109 70 222 103 306 35 91 35 132 -2 135
-14 1 -35 -2 -47 -7z"/>
<path d="M18689 23498 c-12 -24 -33 -73 -46 -110 -22 -67 -34 -100 -108 -303
-20 -55 -45 -125 -55 -155 -10 -30 -35 -98 -55 -150 -20 -52 -41 -111 -46
-130 -6 -19 -21 -60 -33 -90 -13 -30 -31 -77 -40 -105 -10 -27 -31 -86 -47
-130 -17 -44 -33 -90 -36 -103 -10 -40 18 -58 157 -106 80 -28 269 -97 370
-135 41 -16 95 -36 120 -44 25 -8 88 -31 140 -51 52 -20 104 -34 116 -31 14 3
31 29 57 89 20 47 37 89 37 94 0 18 -29 33 -137 71 -529 187 -573 205 -573
235 0 6 7 25 16 41 9 17 33 79 55 139 21 60 44 113 51 118 22 13 42 9 149 -31
57 -21 165 -59 239 -84 74 -25 152 -52 173 -61 21 -10 46 -14 56 -11 20 6 81
125 81 158 0 13 -6 31 -12 40 -11 14 -141 62 -388 144 -95 31 -181 67 -191 80
-15 17 -7 63 26 148 15 39 36 95 47 125 23 64 34 79 66 91 16 6 32 4 52 -6 17
-9 83 -33 147 -55 255 -85 349 -118 385 -135 20 -10 43 -15 51 -12 18 7 87
147 87 175 0 11 -6 24 -13 31 -12 10 -217 83 -562 201 -77 26 -169 59 -204 74
-91 37 -106 35 -132 -16z"/>
<path d="M12330 23289 c-60 -30 -105 -61 -124 -84 -26 -32 -64 -119 -102 -235
-9 -25 -24 -61 -33 -80 -10 -19 -22 -48 -25 -65 -4 -16 -16 -48 -26 -70 -10
-22 -30 -80 -45 -130 -14 -49 -31 -102 -37 -117 -11 -29 -38 -37 -56 -15 -11
12 -102 222 -102 233 0 4 -16 38 -35 75 -19 38 -35 74 -35 81 0 22 -51 78 -72
78 -20 0 -125 -58 -160 -88 -26 -22 -23 -40 28 -149 25 -54 56 -120 69 -148
12 -27 51 -113 85 -190 35 -77 75 -167 91 -200 15 -33 37 -80 47 -105 59 -135
192 -441 208 -475 41 -90 64 -94 164 -30 63 40 70 48 70 77 0 17 -13 61 -30
97 -16 36 -45 109 -65 161 -19 52 -47 120 -61 151 -30 64 -29 87 6 189 29 86
34 95 56 98 11 1 79 -42 169 -108 397 -294 480 -350 513 -350 13 0 45 11 71
25 25 13 67 33 94 44 26 11 47 26 47 34 0 17 -38 67 -50 67 -11 0 -106 62
-227 147 -133 93 -222 155 -313 218 -47 32 -118 83 -157 113 -84 62 -88 75
-48 160 14 30 25 61 25 69 0 9 11 39 24 67 31 67 63 145 92 226 26 75 67 174
88 214 20 39 10 66 -23 65 -14 -1 -69 -23 -121 -50z"/>
<path d="M20160 22953 c-30 -37 -108 -186 -341 -653 -287 -576 -290 -582 -287
-604 3 -23 146 -105 185 -105 18 -1 32 22 88 137 37 75 108 220 159 322 51
102 114 228 140 280 26 52 52 104 58 115 7 11 48 92 93 180 44 89 89 172 98
185 20 29 22 73 5 88 -15 11 -134 62 -163 69 -12 3 -26 -3 -35 -14z"/>
<path d="M11735 20141 c-17 -4 -50 -26 -73 -49 -40 -40 -42 -44 -42 -102 0
-60 1 -62 46 -106 47 -45 60 -49 144 -44 25 1 44 12 73 42 68 70 68 147 1 216
-42 42 -91 56 -149 43z"/>
<path d="M12689 20141 c-14 -3 -48 -25 -75 -49 -48 -43 -49 -45 -49 -102 0
-57 2 -60 44 -97 61 -53 68 -56 123 -54 65 1 131 51 146 111 28 110 -77 216
-189 191z"/>
<path d="M14115 20139 c-17 -4 -50 -28 -74 -53 -40 -41 -43 -48 -43 -97 0 -50
2 -55 50 -101 49 -47 52 -48 112 -48 56 0 64 3 101 38 47 43 64 97 49 153 -12
45 -80 109 -114 109 -13 0 -30 2 -38 4 -7 2 -27 0 -43 -5z"/>
<path d="M14615 20140 c-17 -5 -48 -31 -70 -57 -34 -40 -40 -55 -40 -93 0 -38
6 -53 40 -93 44 -53 75 -65 141 -57 56 7 119 63 127 115 7 43 -1 95 -17 115
-51 63 -117 89 -181 70z"/>
<path d="M15553 20139 c-19 -6 -47 -29 -72 -60 -56 -70 -56 -108 -1 -177 47
-58 54 -62 125 -62 47 0 59 4 91 32 20 18 45 52 55 75 18 42 18 44 0 86 -38
87 -118 130 -198 106z"/>
<path d="M17519 20143 c-14 -2 -44 -22 -65 -44 -38 -39 -39 -42 -39 -109 0
-67 2 -71 36 -106 68 -68 163 -65 229 8 36 39 39 48 39 98 0 50 -3 59 -39 98
-36 40 -88 65 -125 60 -5 0 -22 -3 -36 -5z"/>
<path d="M18461 20140 c-19 -4 -52 -26 -74 -48 -38 -39 -40 -44 -40 -102 0
-58 2 -63 40 -102 72 -72 159 -70 230 6 39 41 43 50 43 96 0 45 -4 55 -41 95
-35 37 -93 69 -119 64 -3 -1 -20 -5 -39 -9z"/>
<path d="M20399 20143 c-14 -2 -46 -24 -70 -49 -42 -43 -44 -47 -44 -104 0
-58 2 -61 46 -106 45 -45 48 -46 109 -46 61 0 64 1 108 45 44 44 45 47 45 107
0 59 -1 63 -44 105 -45 44 -88 58 -150 48z"/>
<path d="M14615 19639 c-34 -10 -98 -81 -108 -121 -11 -44 3 -83 47 -132 42
-46 43 -46 107 -46 61 0 66 2 105 40 68 66 69 154 2 218 -52 50 -89 60 -153
41z"/>
<path d="M16052 19635 c-71 -31 -115 -115 -93 -182 12 -41 46 -84 79 -102 11
-6 46 -11 76 -11 47 0 60 4 90 30 45 40 68 106 55 155 -14 49 -64 103 -107
115 -48 13 -60 12 -100 -5z"/>
<path d="M17024 19643 c-20 -3 -46 -20 -75 -49 -42 -43 -44 -47 -44 -104 0
-57 2 -61 45 -105 42 -43 47 -45 101 -45 75 0 82 3 129 62 55 69 55 107 -1
176 -28 36 -51 54 -77 62 -20 5 -39 9 -42 8 -3 -1 -19 -3 -36 -5z"/>
<path d="M18964 19640 c-18 -4 -49 -24 -70 -46 -37 -37 -39 -41 -39 -104 0
-63 2 -67 39 -105 66 -66 154 -66 224 1 41 38 42 41 42 104 0 63 -1 66 -43
106 -45 44 -94 58 -153 44z"/>
<path d="M19905 19643 c-19 -3 -49 -21 -78 -47 -46 -43 -47 -45 -47 -106 0
-61 1 -63 48 -106 47 -44 64 -49 136 -44 18 1 48 17 73 38 79 68 79 156 0 223
-43 36 -79 48 -132 42z"/>
<path d="M11740 19140 c-20 -4 -52 -23 -75 -44 -39 -36 -40 -38 -40 -106 l0
-69 45 -41 c45 -40 63 -46 140 -40 25 1 45 13 74 42 67 70 67 147 0 216 -42
42 -81 54 -144 42z"/>
<path d="M12684 19136 c-18 -6 -51 -28 -75 -49 -42 -37 -44 -40 -44 -96 0 -55
2 -59 44 -99 50 -48 69 -56 129 -53 34 1 54 9 87 36 79 65 79 165 1 228 -47
38 -97 50 -142 33z"/>
<path d="M14115 19139 c-17 -4 -50 -28 -74 -53 -40 -41 -43 -48 -43 -97 0 -50
2 -55 50 -101 49 -47 52 -48 111 -48 56 0 64 3 101 36 49 44 66 96 50 153 -12
47 -79 111 -114 111 -13 0 -30 2 -38 4 -7 2 -27 0 -43 -5z"/>
<path d="M14615 19139 c-17 -4 -48 -29 -70 -55 -33 -40 -39 -54 -39 -94 0 -40
6 -54 38 -93 63 -77 153 -83 224 -15 66 63 66 153 0 216 -52 50 -89 60 -153
41z"/>
<path d="M15553 19139 c-21 -6 -48 -28 -73 -60 -53 -67 -54 -108 -5 -172 45
-59 61 -67 129 -67 48 0 60 4 92 32 20 18 45 52 55 75 18 42 18 44 0 86 -20
46 -81 107 -109 107 -9 0 -26 2 -37 4 -11 3 -35 0 -52 -5z"/>
<path d="M17024 19143 c-20 -3 -46 -20 -75 -49 -42 -43 -44 -47 -44 -104 0
-57 2 -61 45 -105 42 -43 47 -45 101 -45 75 0 82 3 129 62 55 69 55 107 -1
176 -28 36 -51 54 -77 62 -20 5 -39 9 -42 8 -3 -1 -19 -3 -36 -5z"/>
<path d="M8430 15013 c-27 -10 -71 -57 -85 -90 -12 -28 -12 -38 0 -65 17 -41
62 -83 96 -91 72 -17 152 47 152 123 0 83 -88 150 -163 123z"/>
<path d="M9185 15010 c-11 -4 -36 -24 -55 -44 -28 -29 -35 -45 -35 -76 0 -34
7 -47 42 -82 37 -36 47 -41 86 -41 84 2 152 83 128 156 -24 71 -104 113 -166
87z"/>
<path d="M10380 15013 c-37 -15 -80 -58 -89 -89 -26 -94 68 -181 163 -152 39
12 85 67 92 110 5 28 0 41 -28 75 -42 53 -92 73 -138 56z"/>
<path d="M10789 15012 c-102 -47 -120 -155 -37 -221 24 -19 42 -25 80 -24 43
1 53 5 85 38 32 33 37 44 37 85 0 40 -5 52 -35 83 -36 37 -96 55 -130 39z"/>
<path d="M11559 15013 c-14 -2 -41 -20 -59 -38 -29 -30 -34 -42 -34 -86 0 -47
4 -54 38 -85 57 -51 123 -50 179 4 32 31 37 42 37 82 0 40 -5 51 -37 82 -38
36 -76 49 -124 41z"/>
<path d="M11965 15013 c-11 -3 -35 -20 -53 -38 -30 -30 -34 -40 -34 -85 1 -46
5 -56 35 -85 54 -52 124 -52 180 1 33 31 37 41 37 84 0 41 -5 54 -30 80 -17
18 -45 36 -63 41 -34 9 -40 10 -72 2z"/>
<path d="M12744 15012 c-11 -4 -38 -21 -59 -39 -35 -30 -39 -37 -39 -81 0 -44
4 -53 39 -83 45 -41 73 -50 118 -39 131 29 133 204 3 241 -34 10 -32 10 -62 1z"/>
<path d="M14310 15009 c-39 -16 -80 -76 -80 -119 0 -25 9 -49 28 -73 49 -66
134 -69 193 -7 24 25 29 38 29 80 0 43 -5 56 -33 86 -35 39 -90 52 -137 33z"/>
<path d="M15490 15009 c-29 -12 -55 -41 -75 -86 -12 -29 -12 -37 0 -65 21 -47
46 -75 79 -88 63 -23 137 16 160 85 12 34 12 45 0 74 -20 47 -33 62 -71 78
-37 15 -58 16 -93 2z"/>
<path d="M16274 15013 c-12 -2 -36 -20 -54 -38 -29 -30 -34 -42 -34 -85 0 -43
5 -55 30 -81 32 -32 86 -50 127 -42 14 3 42 22 62 43 31 32 38 46 38 80 0 75
-90 140 -169 123z"/>
<path d="M17864 15013 c-12 -2 -36 -20 -55 -39 -29 -30 -34 -42 -34 -84 0 -44
4 -54 36 -86 33 -33 42 -36 90 -36 49 0 56 3 91 40 31 34 38 49 38 82 0 33 -7
48 -37 80 -38 39 -81 54 -129 43z"/>
<path d="M18623 15011 c-12 -3 -38 -20 -57 -38 -30 -26 -36 -38 -36 -73 0 -48
13 -77 49 -105 79 -63 197 -13 208 88 5 42 3 48 -33 85 -40 42 -86 57 -131 43z"/>
<path d="M20214 15013 c-35 -7 -89 -82 -89 -123 0 -45 48 -107 92 -119 137
-38 221 142 105 223 -36 25 -59 29 -108 19z"/>
<path d="M20975 15006 c-67 -30 -103 -97 -81 -149 40 -95 154 -120 218 -48 51
57 49 108 -5 167 -37 40 -86 52 -132 30z"/>
<path d="M21380 15003 c-22 -12 -44 -35 -60 -65 l-25 -47 22 -45 c29 -58 61
-79 120 -78 40 1 52 7 83 37 31 31 35 41 35 85 0 44 -4 54 -35 85 -44 44 -91
53 -140 28z"/>
<path d="M22155 15013 c-29 -7 -75 -53 -91 -90 -12 -28 -12 -38 0 -66 48 -116
208 -117 246 -2 29 89 -63 183 -155 158z"/>
<path d="M23344 15012 c-28 -9 -68 -43 -82 -69 -24 -44 -15 -91 26 -134 32
-35 43 -40 83 -41 56 -1 68 6 108 56 40 50 40 86 0 136 -41 50 -85 67 -135 52z"/>
<path d="M23754 15013 c-12 -2 -36 -20 -54 -38 -29 -30 -34 -42 -34 -85 0 -45
4 -55 36 -87 32 -32 41 -35 89 -35 49 0 56 3 91 40 31 34 38 49 38 82 0 33 -7
48 -37 80 -38 39 -81 54 -129 43z"/>
<path d="M13108 14578 c-63 -67 -65 -109 -9 -177 23 -28 36 -34 80 -39 50 -4
54 -3 92 34 36 35 39 42 39 92 0 49 -3 56 -37 87 -32 30 -45 35 -86 35 -42 0
-53 -4 -79 -32z"/>
<path d="M13857 14571 c-37 -35 -42 -44 -42 -85 0 -39 5 -51 37 -82 29 -30 45
-38 86 -42 47 -4 53 -2 92 35 38 35 42 43 42 88 0 45 -4 53 -41 87 -34 33 -47
38 -86 38 -39 0 -52 -5 -88 -39z"/>
<path d="M15034 14566 c-36 -36 -44 -50 -44 -81 0 -31 8 -45 44 -81 38 -39 49
-44 88 -44 55 0 93 27 118 83 23 50 10 96 -37 138 -27 23 -43 29 -80 29 -41 0
-50 -5 -89 -44z"/>
<path d="M16228 14577 c-66 -62 -59 -144 17 -196 28 -19 44 -23 80 -18 37 4
52 12 80 43 55 64 55 95 -3 163 -25 29 -36 35 -83 38 -50 4 -57 2 -91 -30z"/>
<path d="M17405 14575 c-38 -32 -40 -37 -40 -90 0 -53 2 -58 40 -90 55 -47
107 -48 163 -2 69 55 69 129 0 185 -56 45 -108 44 -163 -3z"/>
<path d="M18569 14571 c-34 -34 -39 -44 -39 -86 0 -41 4 -51 41 -86 35 -34 47
-39 86 -39 41 0 51 5 89 44 36 36 44 50 44 81 0 31 -8 45 -44 81 -39 40 -48
44 -91 44 -42 0 -52 -5 -86 -39z"/>
<path d="M19763 14578 c-51 -44 -53 -47 -53 -93 0 -34 6 -47 39 -79 33 -32 49
-40 89 -44 46 -4 53 -2 88 31 36 33 39 39 39 92 0 53 -3 59 -37 91 -31 28 -45
34 -83 34 -36 0 -52 -6 -82 -32z"/>
<path d="M21375 14598 c-26 -15 -43 -36 -61 -76 -20 -45 -5 -90 43 -133 33
-28 41 -31 85 -27 115 12 156 147 67 223 -33 27 -98 34 -134 13z"/>
<path d="M23707 14581 c-61 -54 -59 -135 4 -193 23 -22 40 -28 72 -27 57 1 70
7 107 54 42 52 38 103 -9 154 -27 29 -41 35 -85 39 -48 4 -56 1 -89 -27z"/>
<path d="M8425 14201 c-29 -13 -71 -62 -82 -96 -18 -55 40 -139 104 -151 99
-19 184 107 129 191 -32 49 -105 76 -151 56z"/>
<path d="M13910 14201 c-32 -10 -85 -60 -94 -88 -22 -70 50 -156 129 -156 84
0 146 78 124 157 -17 60 -100 105 -159 87z"/>
<path d="M18628 14201 c-15 -3 -43 -20 -62 -38 -32 -28 -36 -37 -36 -81 0 -44
4 -54 37 -86 21 -20 49 -37 63 -38 64 -3 86 4 123 43 30 32 37 46 37 79 0 34
-7 48 -37 79 -39 40 -76 53 -125 42z"/>
<path d="M20756 11149 c-61 -9 -185 -63 -266 -116 -83 -53 -148 -103 -154
-119 -7 -17 10 -50 57 -111 18 -23 44 -61 58 -85 14 -24 73 -119 131 -213 57
-93 114 -186 126 -206 12 -19 31 -44 42 -54 20 -18 23 -18 48 -3 15 9 65 38
112 64 190 107 260 168 308 272 22 47 26 70 26 137 -1 68 -6 92 -35 158 -38
86 -111 179 -174 219 -79 50 -182 72 -279 57z m190 -110 c107 -56 177 -148
205 -273 10 -44 9 -62 -5 -109 -29 -100 -92 -163 -274 -271 -56 -34 -67 -37
-87 -26 -12 6 -29 26 -38 43 -9 18 -43 75 -77 127 -33 52 -69 111 -80 130 -11
19 -38 62 -60 95 -88 136 -89 146 -2 198 88 54 188 105 214 110 13 2 51 5 84
6 51 1 72 -4 120 -30z"/>
<path d="M10923 11022 c-65 -54 -138 -113 -163 -132 -50 -39 -291 -242 -327
-277 -28 -27 -30 -59 -3 -73 25 -13 57 2 120 57 25 22 54 45 66 51 23 12 20
14 154 -65 195 -114 199 -118 181 -202 -16 -77 -14 -125 7 -144 22 -20 46 -22
60 -4 11 13 27 98 37 197 4 36 13 91 21 124 8 32 26 117 40 190 13 72 31 163
39 201 20 96 19 100 -16 140 -53 60 -78 52 -216 -63z m137 -41 c0 -21 -32
-215 -46 -281 -23 -112 -28 -125 -46 -128 -15 -3 -85 38 -150 88 -14 11 -32
20 -40 20 -21 0 -58 29 -58 46 0 9 12 26 28 39 193 163 284 233 297 229 8 -4
15 -9 15 -13z"/>
<path d="M11713 10640 c-107 -50 -195 -161 -244 -305 -19 -56 -24 -90 -24
-175 1 -95 3 -110 28 -158 78 -148 218 -231 393 -232 98 0 156 23 220 86 77
77 93 133 44 149 -27 9 -54 -9 -78 -49 -11 -19 -40 -47 -63 -63 -36 -24 -55
-28 -123 -31 -70 -3 -89 0 -139 22 -62 28 -135 94 -163 147 -9 19 -19 64 -22
101 -16 221 130 448 288 447 68 0 156 -26 212 -62 72 -46 104 -99 111 -185 3
-34 11 -69 17 -77 33 -40 73 9 72 88 -2 137 -94 242 -264 301 -107 36 -183 36
-265 -4z"/>
<path d="M19765 10605 c-28 -27 -28 -23 -15 -230 5 -82 15 -253 21 -380 6
-126 15 -236 21 -242 16 -20 56 -15 68 6 5 11 10 56 10 101 0 45 5 90 10 100
10 18 160 100 184 100 6 0 40 14 74 30 35 17 73 30 84 30 11 0 51 -27 90 -60
38 -33 74 -60 79 -60 22 0 49 22 49 39 0 11 -117 133 -292 305 -265 259 -295
286 -325 286 -23 0 -42 -8 -58 -25z m239 -242 c84 -84 145 -154 144 -163 -4
-16 -71 -53 -132 -70 -21 -6 -56 -23 -78 -38 -31 -20 -44 -23 -56 -15 -19 11
-23 40 -42 260 -12 137 -10 173 8 173 5 0 75 -66 156 -147z"/>
<path d="M18845 10243 c-39 -10 -221 -73 -280 -97 -57 -24 -60 -27 -59 -58 1
-18 16 -71 34 -118 37 -99 120 -331 159 -445 52 -156 88 -196 143 -162 13 8
47 20 77 27 30 7 69 21 85 30 17 10 49 23 71 30 123 39 217 128 253 238 26 80
27 133 7 220 -38 161 -151 294 -279 328 -49 13 -169 17 -211 7z m228 -107
c109 -64 182 -199 182 -336 0 -69 -4 -81 -35 -129 -18 -30 -50 -65 -70 -80
-61 -44 -248 -121 -293 -121 -41 0 -54 27 -142 285 -32 96 -73 204 -90 242 -8
17 -15 38 -15 46 0 24 43 52 107 71 32 10 81 26 108 37 75 28 184 22 248 -15z"/>
<path d="M12770 10231 c-130 -42 -247 -212 -271 -390 -23 -173 10 -282 117
-379 86 -79 185 -117 304 -117 77 1 90 4 145 34 80 44 157 133 153 176 -3 26
-8 30 -35 33 -21 2 -37 -3 -47 -15 -92 -109 -99 -114 -166 -125 -155 -27 -324
61 -368 191 -17 49 -15 183 4 255 43 166 165 277 288 262 170 -21 286 -117
286 -234 0 -46 26 -82 60 -82 30 0 43 36 37 100 -10 109 -77 194 -203 257 -66
32 -81 35 -175 39 -57 2 -115 0 -129 -5z"/>
<path d="M18112 9978 c-16 -16 -15 -47 4 -99 8 -24 24 -80 34 -124 10 -44 36
-150 58 -235 22 -85 47 -190 56 -232 10 -43 24 -85 32 -93 18 -17 60 -20 70
-4 12 20 5 84 -16 144 -12 33 -27 92 -34 130 -8 39 -31 133 -51 210 -21 77
-43 171 -50 208 -7 37 -21 77 -30 87 -20 22 -55 26 -73 8z"/>
<path d="M13702 9943 c-5 -10 -12 -36 -16 -58 -4 -22 -11 -67 -17 -100 -5 -33
-18 -87 -29 -120 -10 -33 -24 -94 -31 -135 -6 -41 -22 -122 -35 -180 -13 -58
-24 -124 -24 -147 0 -53 22 -69 111 -84 35 -6 107 -21 159 -34 52 -13 118 -27
145 -31 28 -4 67 -13 88 -20 50 -18 77 -5 77 35 0 37 -13 46 -80 59 -30 5
-100 19 -155 31 -55 11 -126 26 -157 32 -71 13 -92 31 -84 73 3 17 11 65 17
106 19 135 39 148 166 111 37 -11 91 -23 118 -26 28 -4 73 -14 102 -22 61 -17
93 -6 93 31 0 32 -19 45 -76 52 -27 3 -94 16 -149 29 -55 13 -117 26 -137 30
-54 9 -62 29 -48 123 14 91 31 137 57 151 24 12 147 -7 304 -46 90 -23 111
-25 133 -15 22 10 27 18 24 40 -3 23 -11 30 -58 45 -30 10 -99 25 -155 33 -55
9 -137 24 -182 35 -104 24 -149 25 -161 2z"/>
<path d="M17325 9810 c-19 -21 -16 -78 10 -195 7 -33 21 -112 30 -175 8 -63
24 -157 34 -210 11 -52 22 -115 26 -140 9 -55 29 -80 65 -80 15 0 72 9 126 20
54 11 141 25 193 31 125 13 159 24 167 54 17 68 -21 80 -141 45 -39 -11 -119
-27 -180 -35 -142 -18 -151 -14 -159 82 -4 37 -17 127 -31 198 -13 72 -34 191
-45 265 -15 95 -26 139 -37 148 -23 17 -37 15 -58 -8z"/>
<path d="M14688 9805 c-78 -16 -102 -31 -152 -99 -31 -42 -36 -56 -36 -104 0
-66 30 -124 84 -166 35 -27 143 -75 223 -101 110 -34 193 -110 193 -175 0 -54
-14 -80 -63 -115 -40 -29 -47 -30 -142 -30 -88 0 -107 3 -150 26 -58 29 -110
92 -126 152 -14 53 -25 67 -55 67 -41 0 -48 -70 -15 -144 22 -50 90 -120 141
-146 56 -29 186 -53 245 -46 128 15 197 57 243 148 37 75 22 164 -38 226 -32
34 -117 86 -170 105 -208 73 -270 121 -270 208 0 25 10 42 45 76 l45 43 80 0
c95 0 132 -13 187 -66 30 -29 42 -50 47 -81 8 -52 42 -81 75 -63 35 18 31 87
-11 156 -42 71 -103 109 -207 128 -95 18 -85 18 -173 1z"/>
<path d="M16880 9735 c-10 -12 -10 -37 -2 -112 39 -354 63 -557 67 -578 3 -14
7 -36 10 -50 7 -32 50 -51 73 -33 12 10 14 31 9 113 -3 55 -11 132 -16 170
-25 166 -43 304 -48 383 -5 64 -11 90 -25 104 -22 22 -51 23 -68 3z"/>
<path d="M15463 9722 c-7 -5 -15 -98 -22 -287 -6 -154 -13 -331 -17 -393 -6
-122 0 -142 41 -142 12 0 27 6 33 13 5 6 13 75 17 152 4 77 15 250 25 385 11
152 14 252 8 263 -9 18 -62 24 -85 9z"/>
<path d="M16017 9686 c-96 -9 -120 -14 -128 -29 -9 -16 2 -485 17 -715 7 -96
13 -102 112 -102 75 0 334 27 394 41 108 25 197 140 184 238 -7 50 -41 114
-80 150 -33 31 -33 55 -1 93 65 77 57 193 -18 264 -77 74 -187 88 -480 60z
m377 -100 c78 -45 92 -99 47 -173 -36 -58 -80 -72 -253 -79 -105 -5 -160 -3
-174 4 -19 10 -22 23 -27 118 -3 60 -1 118 3 130 12 29 34 33 211 30 139 -2
147 -3 193 -30z m3 -357 c116 -36 134 -171 32 -243 -40 -28 -46 -29 -221 -38
-153 -8 -183 -8 -195 5 -20 20 -24 247 -5 270 11 12 36 17 105 19 123 4 245
-2 284 -13z"/>
</g>
</svg>
